<svg width="1366" height="380" viewBox="0 0 1366 380" fill="none" xmlns="http://www.w3.org/2000/svg">
<path d="M455.333 0H0V380H455.333V0Z" fill="black"/>
<path d="M18.9264 379.329L17.7215 379.999H22.8056L21.6014 379.329L33.3637 372.784L33.3479 379.998H34.6409L34.6576 372.063L51.5084 362.689L61.8795 379.999H178.223L178.216 379.995L211.698 361.254L224.455 368.352L203.522 380H206.198L225.124 369.47V380H226.462V369.47L227.667 370.14L226.73 368.577L226.463 368.13L225.125 365.897V367.238L213.033 360.51L226.329 353.068V366.568L225.125 365.898L226.062 367.462L226.33 367.909L227.672 370.141V368.802L246.599 379.332L245.394 380.002H250.478L249.274 379.332L261.036 372.786L261.02 380.001H262.313L262.33 372.065L279.181 362.692L289.552 380.002H405.889L405.883 379.998L439.364 361.257L452.122 368.355L431.188 380H433.864L452.79 369.47V380H454.132V369.47L455.337 370.14L454.4 368.577L454.133 368.13L452.791 365.897V367.238L440.698 360.51L453.995 353.068V366.568L452.791 365.898L453.728 367.462L453.995 367.909L455.337 370.141V263.193L454.132 263.863V242.802L455.337 243.472V136.526L453.995 138.759L453.728 139.206L452.791 140.769L453.995 140.1V153.216L440.951 146.017L452.79 139.43V140.77L454.132 138.538L454.399 138.091L455.336 136.528L454.131 137.198V116.138L455.336 116.808V9.8618L454.131 10.5317V0.00161894H452.79V10.5317L433.863 0.00161894H431.188L452.122 11.6484L439.608 18.6109L405.888 0.00161894H289.547L279.176 17.3115L262.291 7.91756L262.308 -0.00163626H261.015L260.999 7.19511L249.268 0.668243L250.472 -0.00163626H245.388L246.593 0.668243L227.666 11.1983V9.85854L226.461 10.5284V-0.00163626H225.124V10.5284L206.197 -0.00163626H203.522L224.455 11.6453L211.942 18.6076L178.223 -0.00163626H176.057L193.39 28.9276L180.042 36.353L158.749 0.61981H176.057V-0.00321453H61.8803L51.5092 17.3066L34.6241 7.91273L34.6417 -0.00646973H33.3487L33.3327 7.19027L21.6014 0.66341L22.8056 -0.00646973H17.7215L18.9264 0.66341L-0.000506566 11.1935V13.4262L20.9331 25.073V1.77935L33.3293 8.67632L33.2455 45.6321L-0.00388452 27.2815V28.7175L32.589 46.7053H-0.00388452V47.9982H33.913L42.6776 62.7052H-0.00470342V63.9512H43.4197L65.0845 100.307L51.9955 107.59L34.6627 78.6607H34.4555C34.4421 78.6518 34.4321 78.6405 34.4187 78.6332C34.3202 78.5783 34.2083 78.5494 34.0945 78.5494C33.9807 78.5494 33.8689 78.5783 33.7704 78.6332L33.7235 78.6599H-0.00306562V79.9528H31.42L-0.00306562 97.5414V98.983L33.4468 80.2599L33.3629 117.961L20.9289 124.879V101.585L-0.00470342 113.232V115.465L18.9223 125.995L17.7173 126.665L18.9223 127.334L-0.00470342 137.864V140.097L20.9289 151.744V128.45L33.3251 135.347L33.2413 172.303L-0.00808137 153.952V155.388L32.5848 173.376H-0.00808137V174.669H33.9088L42.6734 189.376H-0.00890027V190.622H43.4155L65.0803 226.978L51.9913 234.262L34.6585 205.332H34.4513C34.4379 205.324 34.4279 205.312 34.4145 205.305C34.316 205.25 34.2042 205.221 34.0904 205.221C33.9766 205.221 33.8647 205.25 33.7662 205.305L33.7193 205.332H-0.00726247V206.625H31.4158L-0.00726247 224.213V225.655L33.4426 206.932L33.3587 244.633L20.9247 251.551V228.258L-0.00890027 239.904V242.137L18.9181 252.667L17.7131 253.337L18.9181 254.007L-0.00890027 264.537V266.77L20.9247 278.417V255.123L33.321 262.02L33.2371 298.976L-0.0122782 280.625V282.061L32.5806 300.05H-0.0122782V301.343H33.9046L42.6692 316.05H-0.0130971V317.296H43.4113L65.0761 353.652L51.9871 360.934L34.6543 332.005H34.4463C34.4337 331.996 34.4229 331.986 34.4095 331.978C34.311 331.923 34.1991 331.893 34.0853 331.893C33.9715 331.893 33.8597 331.923 33.7612 331.978L33.7142 332.004H-0.0122782V333.297H31.4108L-0.0122782 350.886V352.327L33.4375 333.604L33.3537 371.305L20.9197 378.223V354.929L-0.013916 366.576V368.809L18.9264 379.329ZM19.5972 251.546L0.671194 241.016L19.5972 230.486V251.546ZM19.5972 276.18L0.671194 265.65L19.5972 255.12V276.18ZM33.3663 246.119L33.3344 260.531L21.603 254.004L22.8072 253.334L21.603 252.664L33.3663 246.119ZM19.5972 124.88L0.671194 114.35L19.5972 103.82V124.88ZM19.5972 149.514L0.671194 138.984L19.5972 128.454V149.514ZM33.3663 119.453L33.3344 133.864L21.603 127.338L22.8072 126.668L21.603 125.998L33.3663 119.453ZM19.5972 22.8476L0.671194 12.3175L19.5972 1.78744V22.8476ZM44.9174 317.29H62.5982L79.5579 345.598L66.2106 353.024L44.9174 317.29ZM111.294 302.564L112.209 304.091L111.294 302.564V303.903L99.6915 297.448L112.499 290.28V303.233L111.294 302.564ZM90.9839 237.998H112.498V252.705H81.9151L66.8773 227.47L80.227 220.043L90.9839 237.997L91.7563 236.704L81.3859 219.395L98.157 210.063L112.496 217.977V236.704H91.7546L90.9839 237.998ZM111.294 204.1L112.498 203.43V216.551L99.4533 209.352L111.294 202.764V204.105L112.498 202.094L112.23 202.541L111.294 204.1ZM81.5394 127.912L90.423 142.82L90.5219 142.766L80.227 159.949L66.8748 152.521L81.5394 127.912ZM65.7553 151.898L52.674 144.618L63.0577 127.286H80.424L65.7553 151.898ZM80.7167 161.71L96.5754 170.533L64.7624 188.34L80.7167 161.71ZM97.8668 171.252L110.624 178.35L89.6909 189.997L110.624 201.644L98.11 208.606L64.3851 189.993L97.8668 171.252ZM96.8144 209.326L80.7142 218.282L64.7415 191.632L96.8144 209.326ZM111.294 179.466V200.527L92.3668 189.997L111.294 179.466ZM81.5394 254.578L90.423 269.487L90.5219 269.432L80.227 286.615L66.8748 279.187L81.5394 254.578ZM65.7553 278.564L52.674 271.284L63.0577 253.952H80.424L65.7553 278.564ZM80.7167 288.376L97.0685 297.473L64.2711 315.831L80.7167 288.376ZM112.498 253.952V268.659H91.4226L82.6572 253.952H112.498ZM112.498 269.952V288.837L98.3993 296.728L81.385 287.263L91.7554 269.953L91.2154 269.051L91.7563 269.953L112.498 269.952ZM111.294 327.195L92.3668 316.665L111.294 306.135V327.195ZM110.623 328.312L97.8332 335.428L64.6015 317.085L98.3557 298.192L110.623 305.017L89.6893 316.664L110.623 328.312ZM96.5351 336.15L80.7142 344.954L65.0191 318.757L96.5351 336.15ZM44.9106 316.044L66.2048 280.309L79.5545 287.736L62.5948 316.044H44.9106ZM35.0366 300.715L51.9981 272.404L65.0845 279.685L43.7954 315.413L35.0366 300.715ZM34.6174 262.735L50.8367 271.759L34.5386 298.962L34.6174 262.735ZM50.8367 234.906L34.6585 243.908L34.7364 208.033L50.8367 234.906ZM61.877 253.331L51.5058 270.64L34.6207 261.247L34.6551 245.396L51.5058 236.022L61.877 253.331ZM65.7511 228.095L80.4224 252.71H63.0527L52.6664 235.379L65.7511 228.095ZM44.9114 190.621H62.5923L79.552 218.928L66.2048 226.355L44.9114 190.621ZM44.9114 189.375L66.2065 153.64L79.5553 161.067L62.5956 189.375H44.9114ZM35.0375 174.045L51.9989 145.735L65.0853 153.017L43.7962 188.744L35.0375 174.045ZM34.6182 136.066L50.8375 145.089L34.5394 172.293L34.6182 136.066ZM50.8375 108.237L34.6627 117.238L34.7406 81.3637L50.8375 108.237ZM61.8779 126.661L51.5066 143.971L34.6216 134.577L34.656 118.727L51.5066 109.353L61.8779 126.661ZM65.752 101.426L80.4224 126.046H63.0527L52.6664 108.712L65.752 101.426ZM44.9122 63.9512H62.5923L79.552 92.259L66.2048 99.6852L44.9122 63.9512ZM110.619 74.9751L98.1041 81.9374L64.3793 63.3242L97.8643 44.5922L110.622 51.6903L89.6884 63.3371L110.619 74.9751ZM92.3609 63.3282L111.288 52.7982V73.8591L92.3609 63.3282ZM64.7558 61.6725L80.7109 35.0423L96.5695 43.8657L64.7558 61.6725ZM96.8077 82.659L80.7075 91.615L64.7415 64.9654L96.8077 82.659ZM44.9014 62.7052L66.0991 26.9138L79.5503 34.3974L62.5906 62.7052H44.9014ZM50.8358 18.4226L34.5377 45.6257L34.6166 9.39877L50.8358 18.4226ZM51.9947 19.069L64.9796 26.2932L43.7886 62.0725L35.0333 47.3792L51.9947 19.069ZM80.1842 0.621388L65.6429 25.174L52.6638 17.953L63.0477 0.621388H80.1842ZM81.3029 1.24767L90.334 16.4032L80.2203 33.2839L66.7633 25.7971L81.3029 1.24767ZM112.491 15.3292H91.1894L82.4248 0.622276H112.495L112.491 15.3292ZM112.491 34.9558L97.9004 43.1215L81.3808 33.9279L91.7512 16.6181L91.3848 16.0072L91.7512 16.6181H112.493L112.491 34.9558ZM111.287 49.2281L112.223 50.7909L112.491 51.2378L111.287 49.2273V50.5671L99.1942 43.839L112.491 36.3966V49.8972L111.287 49.2281ZM112.491 89.8816L99.4466 82.6825L111.287 76.095V77.4356L112.491 75.4252L112.223 75.872L111.287 77.4356L112.491 76.7658V89.8816ZM112.491 126.041H81.9083L66.8706 100.806L80.2203 93.379L90.9773 111.334L91.7496 110.041L81.3792 92.7309L98.1502 83.3993L112.489 91.3136V110.046H91.7479L90.9755 111.339H112.489L112.491 126.041ZM112.491 141.996H91.4158L82.6512 127.289H112.491V141.996ZM112.491 161.623L97.9004 169.788L81.3808 160.595L91.7512 143.285L91.2112 142.383L91.7521 143.285H112.494L112.491 161.623ZM113.833 303.231V289.529L147.501 270.684L147.417 307.837L134.763 314.877V291.583L113.833 303.231ZM133.428 293.818V314.879L114.502 304.349L133.428 293.818ZM133.428 318.451V339.512L114.502 328.982L133.428 318.451ZM136.639 316.665L135.434 315.995L147.415 309.328L147.383 323.983L135.433 317.335L136.639 316.665ZM113.83 288.088V269.951H146.232L113.83 288.088ZM113.83 268.662V253.955H157.255L178.919 290.312L165.831 297.595L148.498 268.666L113.83 268.662ZM204.813 301.332H226.33V316.039H195.748L180.71 290.804L194.06 283.377L204.816 301.33L205.589 300.038L195.22 282.733L211.991 273.402L226.33 281.316V300.042H205.589L204.813 301.332ZM225.123 239.227L226.059 240.791L226.328 241.238L226.59 241.674L226.461 241.46L225.124 239.227V240.568L213.031 233.844L226.328 226.401V239.902L225.123 239.227ZM204.813 174.662H226.33V189.369H195.748L180.71 164.133L194.06 156.706L204.816 174.66L205.589 173.367L195.22 156.069L211.991 146.738L226.33 154.652V173.379H205.589L204.813 174.662ZM225.123 112.557L226.059 114.121L226.328 114.568L226.56 114.955L226.461 114.793L225.124 112.56V113.901L213.031 107.173L226.328 99.7305V113.231L225.123 112.557ZM165.342 46.0176L175.713 63.3274L165.342 80.6372L148.457 71.2433L148.491 55.3929L165.342 46.0176ZM148.494 53.9028L148.572 18.0282L164.672 44.9016L148.494 53.9028ZM165.342 172.684L175.713 189.994L165.342 207.304L148.457 197.91L148.491 182.06L165.342 172.684ZM148.494 180.57L148.572 144.695L164.672 171.569L148.494 180.57ZM158.746 253.951H176.427L193.387 282.259L180.04 289.685L158.746 253.951ZM194.252 316.038H176.883L166.499 298.707L179.585 291.425L194.252 316.038ZM178.577 254.961L210.643 272.657L194.543 281.613L178.577 254.961ZM158.743 252.705L180.037 216.97L193.387 224.397L176.427 252.705H158.743ZM195.368 191.244L204.251 206.153L204.35 206.098L194.055 223.281L180.703 215.852L195.368 191.244ZM179.584 215.229L166.502 207.949L176.886 190.617H194.252L179.584 215.229ZM194.545 225.041L210.404 233.865L178.591 251.672L194.545 225.041ZM157.628 252.074L148.869 237.376L165.831 209.066L178.917 216.347L157.628 252.074ZM148.374 235.624L148.453 199.397L164.672 208.421L148.374 235.624ZM166.5 172.04L179.586 164.759L194.252 189.371H176.883L166.5 172.04ZM158.746 127.284H176.427L193.387 155.592L180.04 163.018L158.746 127.284ZM178.577 128.294L210.643 145.99L194.543 154.946L178.577 128.294ZM176.426 126.037H158.752L180.042 90.3035L193.389 97.7297L176.426 126.037ZM194.545 98.3745L210.404 107.198L178.591 125.005L194.545 98.3745ZM157.631 125.412L148.869 110.705L165.831 82.3948L178.919 89.6772L157.631 125.412ZM148.374 108.957L148.453 72.7302L164.672 81.754L148.374 108.957ZM176.885 63.9472H194.252L179.588 88.5588L166.501 81.2781L176.885 63.9472ZM195.37 64.5726L204.254 79.4809L204.353 79.4259L194.058 96.6089L180.707 89.181L195.37 64.5726ZM196.489 63.9472H226.33V78.6542H205.255L196.489 63.9472ZM226.33 79.9536V98.2913L211.74 106.453L195.22 97.2634L205.591 79.9536L205.05 79.0518L205.591 79.9536H226.33ZM225.126 137.196L206.199 126.666L225.126 116.136V137.196ZM224.455 138.313L211.941 145.279L178.215 126.665L211.697 107.924L224.454 115.023L203.522 126.667L224.455 138.313ZM226.33 190.623V205.33H205.255L196.491 190.623H226.33ZM226.33 206.623V224.955L211.74 233.121L195.22 223.93L205.591 206.621L205.05 205.719L205.591 206.621L226.33 206.623ZM225.126 263.866L206.199 253.335L225.126 242.805V263.866ZM224.455 264.982L211.942 271.945L178.216 253.331L211.698 234.59L224.455 241.689L203.522 253.333L224.455 264.982ZM226.329 317.292V331.999H205.254L196.49 317.292H226.329ZM204.354 332.771L194.059 349.954L180.687 342.515L195.371 317.917L204.255 332.826L204.354 332.771ZM179.567 341.892L166.501 334.619L176.885 317.288H194.252L179.567 341.892ZM165.343 333.978L148.68 324.703L148.716 308.61L165.347 299.356L175.718 316.666L165.343 333.978ZM148.715 307.122L148.792 271.733L164.674 298.242L148.715 307.122ZM164.674 335.095L148.596 361.931L148.673 326.193L164.674 335.095ZM113.834 252.712V238.005H147.751L156.515 252.712H113.834ZM136.642 190.006L135.437 189.336L147.2 182.79L147.169 197.202L135.437 190.675L136.642 190.006ZM113.834 236.718V218.73L146.427 236.718H113.834ZM113.834 217.294V203.439L134.767 215.086V191.792L147.163 198.689L147.08 235.644L113.834 217.294ZM114.505 202.322L133.431 191.792V212.853L114.505 202.322ZM113.834 176.572V162.323L147.283 143.6L147.2 181.301L134.766 188.219V164.925L113.834 176.572ZM133.429 167.159V188.22L114.503 177.69L133.429 167.159ZM113.834 160.882V143.293H145.257L113.834 160.882ZM113.834 142.003V127.296H157.258L178.923 163.653L165.834 170.936L148.501 142.007H148.293C148.28 141.999 148.27 141.987 148.256 141.979C148.158 141.924 148.046 141.895 147.932 141.895C147.818 141.895 147.706 141.924 147.608 141.979L147.561 142.005L113.834 142.003ZM113.834 126.049V111.342H147.751L156.515 126.049H113.834ZM147.283 16.9333L147.2 54.6341L134.766 61.5521V38.2584L113.832 49.9052V35.6556L147.283 16.9333ZM113.834 34.2148V16.6262H145.258L113.834 34.2148ZM133.429 40.4919V61.5529L114.503 51.0228L133.429 40.4919ZM133.429 65.1254V86.1863L114.503 75.6562L133.429 65.1254ZM136.64 63.3387L135.435 62.6688L147.198 56.1234L147.166 70.5314L135.435 64.0046L136.64 63.3347V63.3387ZM113.831 110.051V92.0627L146.424 110.051H113.831ZM113.831 90.6267V76.7722L134.765 88.419V65.1173L147.161 72.0143L147.077 108.969L113.831 90.6267ZM113.831 74.5395V73.1989L112.627 73.8688V52.8087L113.831 53.4785V52.1379L132.758 62.668L131.553 63.3379L132.758 64.0078L113.831 74.5395ZM178.92 36.9857L165.831 44.2681L148.499 15.3389H148.291C148.278 15.3308 148.267 15.3196 148.254 15.3115C148.155 15.2565 148.043 15.2275 147.93 15.2275C147.816 15.2275 147.704 15.2565 147.605 15.3115L147.559 15.3373H113.832V0.630266H157.256L178.92 36.9857ZM194.252 62.7157H176.883L166.499 45.3841L179.585 38.1025L194.252 62.7157ZM210.643 19.3357L194.543 28.2916L178.574 1.638L210.643 19.3357ZM211.984 20.0767L226.324 27.991V46.7174H205.582L204.81 48.0103H226.33V62.7173H195.748L180.71 37.4819L194.06 30.0548L204.816 48.0095L205.589 46.7166L195.22 29.4003L211.984 20.0767ZM226.685 11.4973L226.325 12.0977L226.057 12.5446L225.12 14.1083L226.324 13.4384V26.555L213.279 19.3559L225.119 12.7684V14.109L226.457 11.8763L226.685 11.4973ZM227.663 116.811V115.471L246.59 126.001L245.385 126.671L246.59 127.341L227.663 137.871V136.531L226.321 138.764L226.053 139.211L225.116 140.774L226.32 140.104V153.221L213.276 146.022L225.116 139.435V140.775L226.454 138.542L226.721 138.096L227.658 136.533L226.453 137.203V116.143L227.663 116.811ZM227.663 239.904V225.65L261.113 206.928L261.029 244.628L248.595 251.546V228.253L227.663 239.904ZM247.258 230.491V251.551L228.332 241.021L247.258 230.491ZM247.258 255.125V276.185L228.332 265.655L247.258 255.125ZM250.469 253.338L249.265 252.668L261.027 246.123L260.996 260.534L249.265 254.007L250.469 253.337V253.338ZM227.66 224.214V206.625H259.083L227.66 224.214ZM227.66 205.337V190.63H271.085L292.749 226.986L279.66 234.269L262.328 205.34H262.12C262.107 205.331 262.097 205.32 262.084 205.312C261.985 205.257 261.873 205.228 261.76 205.228C261.646 205.228 261.534 205.257 261.435 205.312L261.389 205.339L227.66 205.337ZM338.958 302.563L339.873 304.09L338.958 302.563V303.903L326.865 297.174L340.162 289.731V303.232L338.958 302.563ZM341.499 303.233V288.983L374.949 270.261L374.865 307.961L362.431 314.879V291.586L341.499 303.233ZM361.095 293.819V314.88L342.169 304.35L361.095 293.819ZM361.095 318.453V339.514L342.169 328.984L361.095 318.453ZM364.306 316.666L363.101 315.996L374.864 309.451L374.833 323.862L363.101 317.335L364.306 316.666ZM341.497 287.542V269.954H372.92L341.497 287.542ZM341.497 268.665V253.958H384.921L406.586 290.315L393.497 297.597L376.164 268.668H375.956C375.944 268.66 375.933 268.649 375.919 268.64C375.821 268.586 375.709 268.557 375.595 268.557C375.481 268.557 375.37 268.586 375.271 268.64L375.224 268.667L341.497 268.665ZM432.48 301.334H453.997V316.041H423.415L408.377 290.806L421.727 283.379L432.484 301.333L433.256 300.04L422.887 282.733L439.658 273.402L453.997 281.316V300.042H433.255L432.48 301.334ZM452.12 264.98L439.606 271.942L405.88 253.329L439.362 234.588L452.119 241.686L431.188 253.333L452.12 264.98ZM433.863 253.333L452.789 242.803V263.863L433.863 253.333ZM393.008 46.0233L403.379 63.3331L393.008 80.6429L376.123 71.249L376.158 55.3986L393.008 46.0233ZM376.161 53.9085L376.239 18.0299L392.339 44.9032L376.161 53.9085ZM374.948 16.9284L374.865 54.6293L362.431 61.5472V38.2536L341.497 49.9004V35.6508L374.948 16.9284ZM341.499 34.21V16.6214H372.922L341.499 34.21ZM341.499 90.6218V76.7665L362.432 88.4134V65.1173L374.829 72.0143L374.745 108.969L341.499 90.6218ZM374.091 110.046H341.499V92.0586L374.091 110.046ZM364.306 63.3339L363.101 62.664L374.864 56.1186L374.833 70.5314L363.101 64.0046L364.306 63.3347V63.3339ZM342.168 75.6506L361.094 65.1206V86.1815L342.168 75.6506ZM361.094 40.4871V61.548L342.168 51.018L361.094 40.4871ZM375.415 111.336L384.179 126.043H341.497V111.336H375.415ZM341.498 176.567V162.318L374.948 143.595L374.864 181.296L362.43 188.214V164.921L341.498 176.567ZM361.093 167.154V188.215L342.167 177.685L361.093 167.154ZM361.093 191.787V212.848L342.167 202.318L361.093 191.787ZM364.304 190.001L363.1 189.331L374.862 182.785L374.831 197.197L363.1 190.67L364.304 190.001ZM341.495 160.877V143.288H372.918L341.495 160.877ZM341.495 141.999V127.292H384.92L406.584 163.649L393.496 170.931L376.163 142.002H375.955C375.942 141.994 375.931 141.982 375.918 141.974C375.819 141.919 375.707 141.89 375.594 141.89C375.48 141.89 375.368 141.919 375.27 141.974L375.223 142L341.495 141.999ZM385.295 252.085L376.533 237.378L393.495 209.067L406.584 216.35L385.295 252.085ZM386.41 253.956H404.091L421.05 282.264L407.703 289.69L386.41 253.956ZM421.916 316.043H404.546L394.162 298.711L407.249 291.43L421.916 316.043ZM406.24 254.965L438.306 272.662L422.206 281.618L406.24 254.965ZM393.009 172.689L403.379 189.999L393.009 207.309L376.124 197.915L376.159 182.065L393.009 172.689ZM376.162 180.575L376.24 144.696L392.34 171.569L376.162 180.575ZM404.551 190.623H421.918L407.255 215.235L394.168 207.955L404.551 190.623ZM407.708 216.976L421.055 224.402L404.096 252.71H386.418L407.708 216.976ZM376.043 235.629L376.122 199.402L392.341 208.426L376.043 235.629ZM404.096 126.046H386.418L407.708 90.3123L421.055 97.7386L404.096 126.046ZM422.214 98.3834L438.073 107.207L406.259 125.014L422.214 98.3834ZM407.255 88.5718L394.168 81.291L404.552 63.9601H421.919L407.255 88.5718ZM385.299 125.42L376.537 110.713L393.499 82.4029L406.588 89.6853L385.299 125.42ZM376.043 108.964L376.122 72.7375L392.341 81.7613L376.043 108.964ZM394.168 45.3808L407.255 38.0992L421.921 62.7117H404.551L394.168 45.3808ZM423.037 64.584L431.921 79.4922L432.019 79.4372L421.724 96.6202L408.375 89.1924L423.037 64.584ZM424.156 63.9585H453.997V78.6655H432.922L424.156 63.9585ZM453.995 79.9585V98.2962L439.404 106.458L422.887 97.2634L433.257 79.9536L432.717 79.0518L433.257 79.9536L453.995 79.9585ZM452.121 115.024L432.308 126.046H406.989L439.364 107.925L452.121 115.024ZM438.311 146.001L422.211 154.957L406.242 128.303L438.311 146.001ZM421.055 155.602L407.708 163.028L386.415 127.295H404.096L421.055 155.602ZM421.921 189.379H404.551L394.167 172.048L407.254 164.766L421.921 189.379ZM423.037 191.252L431.921 206.16L432.019 206.105L421.724 223.288L408.375 215.861L423.037 191.252ZM422.214 225.05L438.073 233.873L406.26 251.68L422.214 225.05ZM453.995 317.292V331.999H432.919L424.155 317.292H453.995ZM432.019 332.772L421.724 349.955L408.364 342.521L423.039 317.916L431.922 332.825L432.019 332.772ZM407.244 341.903L394.167 334.63L404.551 317.299H421.917L407.244 341.903ZM393.009 333.984L376.124 324.59L376.159 308.74L393.009 299.366L403.379 316.676L393.009 333.984ZM376.162 307.249L376.24 271.37L392.34 298.244L376.162 307.249ZM392.34 335.1L376.042 362.303L376.121 326.076L392.34 335.1ZM341.499 252.717V238.01H375.416L384.181 252.717H341.499ZM341.499 236.717V218.729L374.092 236.717H341.499ZM341.499 217.293V203.438L362.433 215.084V191.791L374.829 198.688L374.745 235.643L341.499 217.293ZM341.499 201.205V199.864L340.158 202.097L339.89 202.544L338.954 204.107L340.158 203.438V216.551L327.113 209.352L338.954 202.764V204.105L340.291 201.872L340.559 201.425L341.495 199.862L340.29 200.532V179.472L341.495 180.141L340.559 178.578L340.291 178.131L338.954 175.898V177.238L326.861 170.51L340.158 163.067V176.567L338.954 175.897L339.89 177.461L340.158 177.908L341.499 180.141V178.8L360.426 189.33L359.221 190L360.426 190.67L341.499 201.205ZM318.648 111.339H340.162V126.046H309.579L294.541 100.811L307.891 93.3839L318.648 111.339L319.42 110.046L309.05 92.7358L325.821 83.4041L340.16 91.3192V110.046H319.419L318.648 111.339ZM338.289 74.9847L325.774 81.9471L292.049 63.3339L325.531 44.5922L338.289 51.6903L317.355 63.3371L338.289 74.9847ZM320.031 63.3379L338.958 52.8079V73.8688L320.031 63.3379ZM292.755 100.318L279.666 107.6L262.334 78.6712H262.126C262.113 78.6623 262.103 78.651 262.09 78.6437C261.991 78.5887 261.879 78.5598 261.765 78.5598C261.652 78.5598 261.54 78.5887 261.441 78.6437L261.394 78.6704H227.668V63.9634H271.092L292.755 100.318ZM227.666 113.238V98.9838L261.116 80.2615L261.032 117.962L248.598 124.88V101.587L227.666 113.238ZM247.261 103.825V124.885L228.335 114.355L247.261 103.825ZM247.261 128.458V149.519L228.335 138.989L247.261 128.458ZM250.472 126.672L249.268 126.002L261.03 119.456L260.999 133.868L249.268 127.341L250.472 126.672ZM227.664 97.5479V79.9536H259.087L227.664 97.5479ZM279.176 236.026L289.547 253.335L279.176 270.645L262.291 261.251L262.325 245.401L279.176 236.026ZM262.328 243.91L262.406 208.035L278.507 234.909L262.328 243.91ZM318.648 238.004H340.162V252.711H309.579L294.541 227.475L307.891 220.048L318.648 238.003L319.42 236.71L309.05 219.4L325.821 210.069L340.16 217.984V236.71H319.419L318.648 238.004ZM338.289 201.649L325.774 208.612L292.049 189.998L325.531 171.257L338.289 178.356L317.355 190.002L338.289 201.649ZM320.031 190.002L338.958 179.472V200.533L320.031 190.002ZM309.204 127.918L318.087 142.826L318.186 142.772L307.891 159.955L294.539 152.526L309.204 127.918ZM279.176 109.36L289.547 126.669L279.176 143.979L262.291 134.585L262.325 118.735L279.176 109.36ZM262.328 117.244L262.406 81.3693L278.507 108.243L262.328 117.244ZM290.718 127.292H308.084L293.419 151.903L280.337 144.623L290.718 127.292ZM280.334 108.715L293.42 101.434L308.089 126.046H290.719L280.334 108.715ZM308.38 161.716L324.239 170.54L292.426 188.347L308.38 161.716ZM324.48 209.333L308.38 218.289L292.408 191.633L324.48 209.333ZM309.206 254.585L318.09 269.493L318.189 269.438L307.894 286.622L294.544 279.194L309.206 254.585ZM340.164 253.959V268.666H319.089L310.325 253.959H340.164ZM340.164 269.959V288.297L325.574 296.463L309.054 287.269L319.425 269.959L318.884 269.057L319.425 269.959H340.164ZM324.241 297.208L292.428 315.015L308.383 288.385L324.241 297.208ZM290.264 316.049H272.587L293.876 280.315L307.224 287.741L290.264 316.049ZM293.423 278.573L280.336 271.293L290.72 253.961H308.087L293.423 278.573ZM280.333 235.379L293.42 228.098L308.086 252.711H290.716L280.333 235.379ZM272.58 190.623H290.261L307.22 218.931L293.873 226.357L272.58 190.623ZM272.58 189.377L293.874 153.642L307.224 161.069L290.264 189.377H272.58ZM271.464 188.746L262.704 174.046L279.666 145.736L292.752 153.018L271.464 188.746ZM262.211 172.296L262.29 136.069L278.509 145.093L262.211 172.296ZM272.583 63.9569H290.264L307.224 92.2647L293.876 99.6909L272.583 63.9569ZM292.413 64.9662L324.479 82.6631L308.379 91.619L292.413 64.9662ZM272.584 62.71L293.715 26.8888L307.216 34.4039L290.256 62.7117L272.584 62.71ZM308.382 35.0471L324.24 43.8705L292.427 61.6773L308.382 35.0471ZM340.163 127.29V141.997H319.087L310.323 127.29H340.163ZM340.163 143.29V161.628L325.572 169.793L309.052 160.6L319.423 143.29L318.882 142.388L319.423 143.29H340.163ZM338.959 327.199L320.032 316.669L338.959 306.139V327.199ZM338.288 328.316L325.773 335.279L292.048 316.665L325.531 297.924L338.289 305.023L317.355 316.669L338.288 328.316ZM324.478 335.999L308.378 344.955L292.408 318.299L324.478 335.999ZM307.222 345.601L293.875 353.027L272.581 317.293H290.262L307.222 345.601ZM271.465 315.421L262.704 300.718L279.666 272.407L292.754 279.689L271.465 315.421ZM262.208 298.966L262.287 262.739L278.507 271.763L262.208 298.966ZM227.665 189.38V174.673H261.581L270.346 189.38H227.665ZM227.665 173.38V155.392L260.258 173.38H227.665ZM227.665 153.956V140.1L248.599 151.747V128.454L260.995 135.351L260.911 172.306L227.665 153.956ZM227.665 28.7256L260.258 46.7134H227.665V28.7256ZM247.261 22.8476L228.334 12.3175L247.261 1.78744V22.8476ZM260.995 8.68441L260.911 45.6402L227.662 27.2896V13.4343L248.596 25.0811V1.78744L260.995 8.68441ZM261.582 48.0022L270.347 62.7092H227.665V48.0022H261.582ZM278.507 18.4266L262.208 45.6297L262.287 9.40282L278.507 18.4266ZM279.666 19.073L292.598 26.2649L271.466 62.0822L262.705 47.38L279.666 19.073ZM307.728 0.625433L293.259 25.1482L280.335 17.9563L290.718 0.624643L307.728 0.625433ZM308.846 1.2525L317.94 16.5147L307.889 33.2887L294.378 25.7736L308.846 1.2525ZM340.161 15.3333H318.728L309.963 0.626222H340.161V15.3333ZM340.161 34.9598L325.57 43.1255L309.051 33.932L319.421 16.6221L319.023 15.9579L319.421 16.6221H340.163L340.161 34.9598ZM340.161 51.2426L341.503 53.4753V52.1347L360.43 62.6648L359.225 63.3347L360.43 64.0046L341.503 74.5346V73.194L340.161 75.4267L339.893 75.8736L338.957 77.4373L340.161 76.7673V89.884L327.116 82.6849L338.956 76.0975V77.4381L340.294 75.2053L340.561 74.7585L341.498 73.1949L340.293 73.8647V52.8046L341.498 53.4745L340.561 51.9109L340.294 51.464L338.956 49.2313V50.5711L326.863 43.8431L340.16 36.3999V49.9004L338.956 49.2305L339.892 50.7933L340.16 51.2402L340.161 51.2426ZM384.923 0.625433L406.588 36.9825L393.499 44.2649L376.166 15.3357H375.958C375.945 15.3276 375.935 15.3163 375.921 15.3082C375.823 15.2533 375.711 15.2243 375.597 15.2243C375.483 15.2243 375.371 15.2533 375.273 15.3082L375.226 15.3341H341.499V0.627109L384.923 0.625433ZM404.095 0.625433L421.055 28.9332L407.707 36.3586L386.414 0.625433H404.095ZM438.308 19.3324L422.208 28.2884L406.239 1.63474L438.308 19.3324ZM439.649 20.0734L453.989 27.9878V46.7141H433.247L432.475 48.0071H453.997V62.7141H423.415L408.377 37.4786L421.727 30.0516L432.484 48.0063L433.256 46.7134L422.887 29.4003L439.649 20.0734ZM454.35 11.4941L453.99 12.0945L453.723 12.5414L452.786 14.105L453.99 13.4351V26.5518L440.946 19.3527L452.786 12.7652V14.1058L454.128 11.8731L454.35 11.4941ZM452.786 112.564V113.905L440.693 107.177L453.99 99.7345V113.235L452.786 112.565L453.723 114.129L453.99 114.576L454.223 114.963L454.124 114.801L452.786 112.564ZM452.786 137.198L433.86 126.668L452.786 116.138V137.198ZM439.603 145.279L407.014 127.292H432.304L452.117 138.316L439.603 145.279ZM453.99 189.379H423.408L408.371 164.144L421.72 156.717L432.477 174.671L433.25 173.378L422.887 156.069L439.658 146.738L453.997 154.652V173.379H433.255L432.483 174.672H453.997L453.99 189.379ZM453.99 205.334H432.916L424.151 190.627H453.997L453.99 205.334ZM453.99 224.96L439.4 233.125L422.887 223.93L433.257 206.621L432.717 205.719L433.257 206.621H453.997L453.99 224.96ZM454.124 241.465L452.782 239.232V240.573L440.697 233.844L453.995 226.401V239.902L452.79 239.232L453.727 240.796L453.995 241.243L454.257 241.679L454.124 241.465ZM453.99 265.428L453.723 265.875L452.786 267.439L453.99 266.769V279.886L440.946 272.687L452.785 266.099V267.44L454.127 265.207L454.353 264.829L453.99 265.428ZM422.88 350.6L433.25 333.29L432.71 332.388L433.25 333.29H453.997V351.627L439.406 359.792L422.88 350.6ZM406.257 378.347L422.211 351.716L438.07 360.54L406.257 378.347ZM386.383 379.379L407.694 343.641L421.051 351.075L404.096 379.379L386.383 379.379ZM385.267 378.75L376.533 364.052L393.495 335.74L406.576 343.017L385.267 378.75ZM341.499 364.672H375.415L384.155 379.379H341.499V364.672ZM341.499 345.394L374.092 363.383H341.499V345.394ZM341.499 330.103L362.433 341.75V318.45L374.829 325.346L374.745 362.301L341.496 343.951L341.499 330.103ZM341.499 326.53L340.158 328.762L339.89 329.209L338.954 330.773L340.158 330.103V343.22L327.113 336.02L338.954 329.433V330.774L340.291 328.541L340.559 328.094L341.495 326.53L340.29 327.2V306.139L341.495 306.809L340.559 305.246L340.291 304.799L339.91 304.163L340.162 304.576L341.504 306.809V305.469L360.431 315.999L359.226 316.669L360.431 317.338L341.504 327.868L341.499 326.53ZM309.579 379.378L294.541 354.142L307.891 346.715L318.648 364.672L319.42 363.379L309.05 346.069L325.821 336.737L340.16 344.651V363.379H319.419L318.647 364.672H340.16V379.379L309.579 379.378ZM280.333 362.045L293.42 354.765L308.089 379.379H290.719L280.333 362.045ZM262.328 370.571L262.406 334.696L278.507 361.569L262.328 370.571ZM228.335 367.679L247.261 357.149V378.209L228.335 367.679ZM227.665 352.314L261.114 333.591L261.03 371.292L248.596 378.21V354.916L227.663 366.563L227.665 352.314ZM227.665 333.284H259.087L227.665 350.873V333.284ZM227.665 317.284H271.088L292.754 353.641L279.665 360.924L262.332 331.995H262.124C262.112 331.985 262.1 331.976 262.087 331.967C261.989 331.912 261.877 331.883 261.763 331.883C261.649 331.883 261.537 331.912 261.439 331.967L261.392 331.994H227.665L227.665 317.284ZM227.665 301.33H261.581L270.345 316.037H227.663L227.665 301.33ZM227.665 282.052L260.257 300.04H227.665V282.052ZM227.665 266.761L248.598 278.408V255.114L260.994 262.011L260.911 298.967L227.661 280.616L227.665 266.761ZM227.665 263.188L226.46 263.857V242.797L227.665 243.466V242.127L246.591 252.657L245.386 253.327L246.591 253.996L227.665 264.527V263.188ZM226.323 265.42L226.054 265.867L225.118 267.431L226.322 266.761V279.878L213.278 272.678L225.118 266.091V267.432L226.455 265.199L226.682 264.821L226.323 265.42ZM195.213 350.592L205.583 333.282L205.043 332.38L205.584 333.282H226.33V351.619L211.74 359.784L195.213 350.592ZM178.589 378.338L194.543 351.708L210.402 360.531L178.589 378.338ZM158.678 379.371L180.016 343.625L193.385 351.064L176.429 379.379L158.678 379.371ZM157.558 378.746L148.836 364.106L165.832 335.737L178.899 343.009L157.558 378.746ZM113.833 364.672H147.679L156.444 379.379H113.833V364.672ZM113.833 345.7L145.873 363.383H113.833V345.7ZM113.833 330.104L134.766 341.75V318.45L147.382 325.469L147.298 362.727L113.83 344.256L113.833 330.104ZM112.629 306.14L113.833 306.81V305.469L132.76 315.999L131.555 316.669L132.76 317.339L113.833 327.869V326.529L112.65 328.503L112.895 328.092L113.832 326.529L112.628 327.199L112.629 306.14ZM113.833 180.144L112.896 178.58L112.629 178.133L111.287 175.901V177.24L99.1942 170.512L112.491 163.07V176.571L111.287 175.901L112.223 177.464L112.491 177.911L113.833 180.144V178.803L132.76 189.333L131.555 190.003L132.76 190.673L113.833 201.198V199.857L112.629 200.527V179.467L113.833 180.144ZM112.598 328.588L112.495 328.76L112.227 329.207L111.291 330.77L112.495 330.1V343.523L99.175 336.169L111.29 329.429V330.77L112.598 328.588ZM81.9125 379.379L66.8748 354.143L80.2245 346.716L90.9815 364.672L91.7537 363.379L81.3834 346.069L97.8794 336.891L112.495 344.957V363.381H91.7537L90.9815 364.674H112.495V379.381L81.9125 379.379ZM52.6664 362.045L65.7528 354.765L80.4224 379.379H63.0527L52.6664 362.045ZM34.6627 370.571L34.7406 334.696L50.8409 361.569L34.6627 370.571ZM19.5948 378.209L0.668635 367.679L19.5948 357.149V378.209Z" fill="#91703F" fill-opacity="0.33"/>
<path d="M1366 0H910.667V380H1366V0Z" fill="black"/>
<path d="M929.593 379.329L928.389 379.999H933.473L932.269 379.329L944.031 372.784L944.015 379.998H945.308L945.325 372.063L962.175 362.689L972.547 379.999H1088.89L1088.88 379.995L1122.36 361.254L1135.12 368.352L1114.19 380H1116.86L1135.79 369.47V380H1137.13V369.47L1138.33 370.14L1137.4 368.577L1137.13 368.13L1135.79 365.897V367.238L1123.7 360.51L1137 353.068V366.568L1135.79 365.898L1136.73 367.462L1137 367.909L1138.34 370.141V368.802L1157.27 379.332L1156.06 380.002H1161.15L1159.94 379.332L1171.7 372.786L1171.69 380.001H1172.98L1173 372.065L1189.85 362.692L1200.22 380.002H1316.56L1316.55 379.998L1350.03 361.257L1362.79 368.355L1341.86 380H1344.53L1363.46 369.47V380H1364.8V369.47L1366 370.14L1365.07 368.577L1364.8 368.13L1363.46 365.897V367.238L1351.37 360.51L1364.66 353.068V366.568L1363.46 365.898L1364.39 367.462L1364.66 367.909L1366 370.141V263.193L1364.8 263.863V242.802L1366 243.472V136.526L1364.66 138.759L1364.39 139.206L1363.46 140.769L1364.66 140.1V153.216L1351.62 146.017L1363.46 139.43V140.77L1364.8 138.538L1365.07 138.091L1366 136.528L1364.8 137.198V116.138L1366 116.808V9.8618L1364.8 10.5317V0.00161894H1363.46V10.5317L1344.53 0.00161894H1341.86L1362.79 11.6484L1350.27 18.6109L1316.56 0.00161894H1200.21L1189.84 17.3115L1172.96 7.91756L1172.98 -0.00163626H1171.68L1171.67 7.19511L1159.94 0.668243L1161.14 -0.00163626H1156.06L1157.26 0.668243L1138.33 11.1983V9.85854L1137.13 10.5284V-0.00163626H1135.79V10.5284L1116.86 -0.00163626H1114.19L1135.12 11.6453L1122.61 18.6076L1088.89 -0.00163626H1086.72L1104.06 28.9276L1090.71 36.353L1069.42 0.61981H1086.72V-0.00321453H972.547L962.176 17.3066L945.291 7.91273L945.309 -0.00646973H944.016L944 7.19027L932.269 0.66341L933.473 -0.00646973H928.389L929.593 0.66341L910.667 11.1935V13.4262L931.6 25.073V1.77935L943.996 8.67632L943.913 45.6321L910.663 27.2815V28.7175L943.256 46.7053H910.663V47.9982H944.58L953.345 62.7052H910.662V63.9512H954.087L975.752 100.307L962.663 107.59L945.33 78.6607H945.123C945.109 78.6518 945.099 78.6405 945.086 78.6332C944.987 78.5783 944.875 78.5494 944.762 78.5494C944.648 78.5494 944.536 78.5783 944.438 78.6332L944.391 78.6599H910.664V79.9528H942.087L910.664 97.5414V98.983L944.114 80.2599L944.03 117.961L931.596 124.879V101.585L910.662 113.232V115.465L929.589 125.995L928.384 126.665L929.589 127.334L910.662 137.864V140.097L931.596 151.744V128.45L943.992 135.347L943.908 172.303L910.659 153.952V155.388L943.252 173.376H910.659V174.669H944.576L953.34 189.376H910.658V190.622H954.083L975.747 226.978L962.658 234.262L945.326 205.332H945.118C945.105 205.324 945.095 205.312 945.082 205.305C944.983 205.25 944.871 205.221 944.758 205.221C944.644 205.221 944.532 205.25 944.433 205.305L944.386 205.332H910.66V206.625H942.083L910.66 224.213V225.655L944.11 206.932L944.026 244.633L931.592 251.551V228.258L910.658 239.904V242.137L929.585 252.667L928.38 253.337L929.585 254.007L910.658 264.537V266.77L931.592 278.417V255.123L943.988 262.02L943.904 298.976L910.655 280.625V282.061L943.248 300.05H910.655V301.343H944.572L953.336 316.05H910.654V317.296H954.078L975.743 353.652L962.654 360.934L945.321 332.005H945.113C945.101 331.996 945.09 331.986 945.077 331.978C944.978 331.923 944.866 331.893 944.752 331.893C944.639 331.893 944.527 331.923 944.428 331.978L944.381 332.004H910.655V333.297H942.078L910.655 350.886V352.327L944.105 333.604L944.021 371.305L931.587 378.223V354.929L910.653 366.576V368.809L929.593 379.329ZM930.264 251.546L911.338 241.016L930.264 230.486V251.546ZM930.264 276.18L911.338 265.65L930.264 255.12V276.18ZM944.033 246.119L944.001 260.531L932.27 254.004L933.474 253.334L932.27 252.664L944.033 246.119ZM930.264 124.88L911.338 114.35L930.264 103.82V124.88ZM930.264 149.514L911.338 138.984L930.264 128.454V149.514ZM944.033 119.453L944.001 133.864L932.27 127.338L933.474 126.668L932.27 125.998L944.033 119.453ZM930.264 22.8476L911.338 12.3175L930.264 1.78744V22.8476ZM955.584 317.29H973.265L990.225 345.598L976.878 353.024L955.584 317.29ZM1021.96 302.564L1022.88 304.091L1021.96 302.564V303.903L1010.36 297.448L1023.17 290.28V303.233L1021.96 302.564ZM1001.65 237.998H1023.16V252.705H992.582L977.544 227.47L990.894 220.043L1001.65 237.997L1002.42 236.704L992.053 219.395L1008.82 210.063L1023.16 217.977V236.704H1002.42L1001.65 237.998ZM1021.96 204.1L1023.16 203.43V216.551L1010.12 209.352L1021.96 202.764V204.105L1023.16 202.094L1022.9 202.541L1021.96 204.1ZM992.206 127.912L1001.09 142.82L1001.19 142.766L990.894 159.949L977.542 152.521L992.206 127.912ZM976.422 151.898L963.341 144.618L973.725 127.286H991.091L976.422 151.898ZM991.384 161.71L1007.24 170.533L975.43 188.34L991.384 161.71ZM1008.53 171.252L1021.29 178.35L1000.36 189.997L1021.29 201.644L1008.78 208.606L975.052 189.993L1008.53 171.252ZM1007.48 209.326L991.381 218.282L975.409 191.632L1007.48 209.326ZM1021.96 179.466V200.527L1003.03 189.997L1021.96 179.466ZM992.206 254.578L1001.09 269.487L1001.19 269.432L990.894 286.615L977.542 279.187L992.206 254.578ZM976.422 278.564L963.341 271.284L973.725 253.952H991.091L976.422 278.564ZM991.384 288.376L1007.74 297.473L974.938 315.831L991.384 288.376ZM1023.16 253.952V268.659H1002.09L993.324 253.952H1023.16ZM1023.16 269.952V288.837L1009.07 296.728L992.052 287.263L1002.42 269.953L1001.88 269.051L1002.42 269.953L1023.16 269.952ZM1021.96 327.195L1003.03 316.665L1021.96 306.135V327.195ZM1021.29 328.312L1008.5 335.428L975.269 317.085L1009.02 298.192L1021.29 305.017L1000.36 316.664L1021.29 328.312ZM1007.2 336.15L991.381 344.954L975.686 318.757L1007.2 336.15ZM955.578 316.044L976.872 280.309L990.222 287.736L973.262 316.044H955.578ZM945.704 300.715L962.665 272.404L975.752 279.685L954.462 315.413L945.704 300.715ZM945.284 262.735L961.504 271.759L945.206 298.962L945.284 262.735ZM961.504 234.906L945.326 243.908L945.404 208.033L961.504 234.906ZM972.544 253.331L962.173 270.64L945.288 261.247L945.322 245.396L962.173 236.022L972.544 253.331ZM976.418 228.095L991.09 252.71H973.72L963.333 235.379L976.418 228.095ZM955.579 190.621H973.259L990.219 218.928L976.872 226.355L955.579 190.621ZM955.579 189.375L976.874 153.64L990.222 161.067L973.263 189.375H955.579ZM945.705 174.045L962.666 145.735L975.752 153.017L954.463 188.744L945.705 174.045ZM945.285 136.066L961.505 145.089L945.206 172.293L945.285 136.066ZM961.505 108.237L945.33 117.238L945.408 81.3637L961.505 108.237ZM972.545 126.661L962.174 143.971L945.289 134.577L945.323 118.727L962.174 109.353L972.545 126.661ZM976.419 101.426L991.09 126.046H973.72L963.333 108.712L976.419 101.426ZM955.579 63.9512H973.259L990.219 92.259L976.872 99.6852L955.579 63.9512ZM1021.29 74.9751L1008.77 81.9374L975.046 63.3242L1008.53 44.5922L1021.29 51.6903L1000.36 63.3371L1021.29 74.9751ZM1003.03 63.3282L1021.95 52.7982V73.8591L1003.03 63.3282ZM975.423 61.6725L991.378 35.0423L1007.24 43.8657L975.423 61.6725ZM1007.47 82.659L991.375 91.615L975.409 64.9654L1007.47 82.659ZM955.569 62.7052L976.766 26.9138L990.217 34.3974L973.258 62.7052H955.569ZM961.503 18.4226L945.205 45.6257L945.284 9.39877L961.503 18.4226ZM962.662 19.069L975.647 26.2932L954.456 62.0725L945.7 47.3792L962.662 19.069ZM990.851 0.621388L976.31 25.174L963.331 17.953L973.715 0.621388H990.851ZM991.97 1.24767L1001 16.4032L990.887 33.2839L977.43 25.7971L991.97 1.24767ZM1023.16 15.3292H1001.86L993.092 0.622276H1023.16L1023.16 15.3292ZM1023.16 34.9558L1008.57 43.1215L992.048 33.9279L1002.42 16.6181L1002.05 16.0072L1002.42 16.6181H1023.16L1023.16 34.9558ZM1021.95 49.2281L1022.89 50.7909L1023.16 51.2378L1021.95 49.2273V50.5671L1009.86 43.839L1023.16 36.3966V49.8972L1021.95 49.2281ZM1023.16 89.8816L1010.11 82.6825L1021.95 76.095V77.4356L1023.16 75.4252L1022.89 75.872L1021.95 77.4356L1023.16 76.7658V89.8816ZM1023.16 126.041H992.575L977.538 100.806L990.887 93.379L1001.64 111.334L1002.42 110.041L992.046 92.7309L1008.82 83.3993L1023.16 91.3136V110.046H1002.41L1001.64 111.339H1023.16L1023.16 126.041ZM1023.16 141.996H1002.08L993.318 127.289H1023.16V141.996ZM1023.16 161.623L1008.57 169.788L992.048 160.595L1002.42 143.285L1001.88 142.383L1002.42 143.285H1023.16L1023.16 161.623ZM1024.5 303.231V289.529L1058.17 270.684L1058.08 307.837L1045.43 314.877V291.583L1024.5 303.231ZM1044.1 293.818V314.879L1025.17 304.349L1044.1 293.818ZM1044.1 318.451V339.512L1025.17 328.982L1044.1 318.451ZM1047.31 316.665L1046.1 315.995L1058.08 309.328L1058.05 323.983L1046.1 317.335L1047.31 316.665ZM1024.5 288.088V269.951H1056.9L1024.5 288.088ZM1024.5 268.662V253.955H1067.92L1089.59 290.312L1076.5 297.595L1059.16 268.666L1024.5 268.662ZM1115.48 301.332H1137V316.039H1106.41L1091.38 290.804L1104.73 283.377L1115.48 301.33L1116.26 300.038L1105.89 282.733L1122.66 273.402L1137 281.316V300.042H1116.26L1115.48 301.332ZM1135.79 239.227L1136.73 240.791L1136.99 241.238L1137.26 241.674L1137.13 241.46L1135.79 239.227V240.568L1123.7 233.844L1136.99 226.401V239.902L1135.79 239.227ZM1115.48 174.662H1137V189.369H1106.41L1091.38 164.133L1104.73 156.706L1115.48 174.66L1116.26 173.367L1105.89 156.069L1122.66 146.738L1137 154.652V173.379H1116.26L1115.48 174.662ZM1135.79 112.557L1136.73 114.121L1136.99 114.568L1137.23 114.955L1137.13 114.793L1135.79 112.56V113.901L1123.7 107.173L1136.99 99.7305V113.231L1135.79 112.557ZM1076.01 46.0176L1086.38 63.3274L1076.01 80.6372L1059.12 71.2433L1059.16 55.3929L1076.01 46.0176ZM1059.16 53.9028L1059.24 18.0282L1075.34 44.9016L1059.16 53.9028ZM1076.01 172.684L1086.38 189.994L1076.01 207.304L1059.12 197.91L1059.16 182.06L1076.01 172.684ZM1059.16 180.57L1059.24 144.695L1075.34 171.569L1059.16 180.57ZM1069.41 253.951H1087.09L1104.05 282.259L1090.71 289.685L1069.41 253.951ZM1104.92 316.038H1087.55L1077.17 298.707L1090.25 291.425L1104.92 316.038ZM1089.24 254.961L1121.31 272.657L1105.21 281.613L1089.24 254.961ZM1069.41 252.705L1090.7 216.97L1104.05 224.397L1087.09 252.705H1069.41ZM1106.03 191.244L1114.92 206.153L1115.02 206.098L1104.72 223.281L1091.37 215.852L1106.03 191.244ZM1090.25 215.229L1077.17 207.949L1087.55 190.617H1104.92L1090.25 215.229ZM1105.21 225.041L1121.07 233.865L1089.26 251.672L1105.21 225.041ZM1068.29 252.074L1059.54 237.376L1076.5 209.066L1089.58 216.347L1068.29 252.074ZM1059.04 235.624L1059.12 199.397L1075.34 208.421L1059.04 235.624ZM1077.17 172.04L1090.25 164.759L1104.92 189.371H1087.55L1077.17 172.04ZM1069.41 127.284H1087.09L1104.05 155.592L1090.71 163.018L1069.41 127.284ZM1089.24 128.294L1121.31 145.99L1105.21 154.946L1089.24 128.294ZM1087.09 126.037H1069.42L1090.71 90.3035L1104.06 97.7297L1087.09 126.037ZM1105.21 98.3745L1121.07 107.198L1089.26 125.005L1105.21 98.3745ZM1068.3 125.412L1059.54 110.705L1076.5 82.3948L1089.59 89.6772L1068.3 125.412ZM1059.04 108.957L1059.12 72.7302L1075.34 81.754L1059.04 108.957ZM1087.55 63.9472H1104.92L1090.25 88.5588L1077.17 81.2781L1087.55 63.9472ZM1106.04 64.5726L1114.92 79.4809L1115.02 79.4259L1104.72 96.6089L1091.37 89.181L1106.04 64.5726ZM1107.16 63.9472H1137V78.6542H1115.92L1107.16 63.9472ZM1137 79.9536V98.2913L1122.41 106.453L1105.89 97.2634L1116.26 79.9536L1115.72 79.0518L1116.26 79.9536H1137ZM1135.79 137.196L1116.87 126.666L1135.79 116.136V137.196ZM1135.12 138.313L1122.61 145.279L1088.88 126.665L1122.36 107.924L1135.12 115.023L1114.19 126.667L1135.12 138.313ZM1137 190.623V205.33H1115.92L1107.16 190.623H1137ZM1137 206.623V224.955L1122.41 233.121L1105.89 223.93L1116.26 206.621L1115.72 205.719L1116.26 206.621L1137 206.623ZM1135.79 263.866L1116.87 253.335L1135.79 242.805V263.866ZM1135.12 264.982L1122.61 271.945L1088.88 253.331L1122.36 234.59L1135.12 241.689L1114.19 253.333L1135.12 264.982ZM1137 317.292V331.999H1115.92L1107.16 317.292H1137ZM1115.02 332.771L1104.73 349.954L1091.35 342.515L1106.04 317.917L1114.92 332.826L1115.02 332.771ZM1090.23 341.892L1077.17 334.619L1087.55 317.288H1104.92L1090.23 341.892ZM1076.01 333.978L1059.35 324.703L1059.38 308.61L1076.01 299.356L1086.39 316.666L1076.01 333.978ZM1059.38 307.122L1059.46 271.733L1075.34 298.242L1059.38 307.122ZM1075.34 335.095L1059.26 361.931L1059.34 326.193L1075.34 335.095ZM1024.5 252.712V238.005H1058.42L1067.18 252.712H1024.5ZM1047.31 190.006L1046.1 189.336L1057.87 182.79L1057.84 197.202L1046.1 190.675L1047.31 190.006ZM1024.5 236.718V218.73L1057.09 236.718H1024.5ZM1024.5 217.294V203.439L1045.43 215.086V191.792L1057.83 198.689L1057.75 235.644L1024.5 217.294ZM1025.17 202.322L1044.1 191.792V212.853L1025.17 202.322ZM1024.5 176.572V162.323L1057.95 143.6L1057.87 181.301L1045.43 188.219V164.925L1024.5 176.572ZM1044.1 167.159V188.22L1025.17 177.69L1044.1 167.159ZM1024.5 160.882V143.293H1055.92L1024.5 160.882ZM1024.5 142.003V127.296H1067.93L1089.59 163.653L1076.5 170.936L1059.17 142.007H1058.96C1058.95 141.999 1058.94 141.987 1058.92 141.979C1058.82 141.924 1058.71 141.895 1058.6 141.895C1058.49 141.895 1058.37 141.924 1058.28 141.979L1058.23 142.005L1024.5 142.003ZM1024.5 126.049V111.342H1058.42L1067.18 126.049H1024.5ZM1057.95 16.9333L1057.87 54.6341L1045.43 61.5521V38.2584L1024.5 49.9052V35.6556L1057.95 16.9333ZM1024.5 34.2148V16.6262H1055.92L1024.5 34.2148ZM1044.1 40.4919V61.5529L1025.17 51.0228L1044.1 40.4919ZM1044.1 65.1254V86.1863L1025.17 75.6562L1044.1 65.1254ZM1047.31 63.3387L1046.1 62.6688L1057.86 56.1234L1057.83 70.5314L1046.1 64.0046L1047.31 63.3347V63.3387ZM1024.5 110.051V92.0627L1057.09 110.051H1024.5ZM1024.5 90.6267V76.7722L1045.43 88.419V65.1173L1057.83 72.0143L1057.74 108.969L1024.5 90.6267ZM1024.5 74.5395V73.1989L1023.29 73.8688V52.8087L1024.5 53.4785V52.1379L1043.43 62.668L1042.22 63.3379L1043.43 64.0078L1024.5 74.5395ZM1089.59 36.9857L1076.5 44.2681L1059.17 15.3389H1058.96C1058.95 15.3308 1058.93 15.3196 1058.92 15.3115C1058.82 15.2565 1058.71 15.2275 1058.6 15.2275C1058.48 15.2275 1058.37 15.2565 1058.27 15.3115L1058.23 15.3373H1024.5V0.630266H1067.92L1089.59 36.9857ZM1104.92 62.7157H1087.55L1077.17 45.3841L1090.25 38.1025L1104.92 62.7157ZM1121.31 19.3357L1105.21 28.2916L1089.24 1.638L1121.31 19.3357ZM1122.65 20.0767L1136.99 27.991V46.7174H1116.25L1115.48 48.0103H1137V62.7173H1106.41L1091.38 37.4819L1104.73 30.0548L1115.48 48.0095L1116.26 46.7166L1105.89 29.4003L1122.65 20.0767ZM1137.35 11.4973L1136.99 12.0977L1136.72 12.5446L1135.79 14.1083L1136.99 13.4384V26.555L1123.95 19.3559L1135.79 12.7684V14.109L1137.12 11.8763L1137.35 11.4973ZM1138.33 116.811V115.471L1157.26 126.001L1156.05 126.671L1157.26 127.341L1138.33 137.871V136.531L1136.99 138.764L1136.72 139.211L1135.78 140.774L1136.99 140.104V153.221L1123.94 146.022L1135.78 139.435V140.775L1137.12 138.542L1137.39 138.096L1138.32 136.533L1137.12 137.203V116.143L1138.33 116.811ZM1138.33 239.904V225.65L1171.78 206.928L1171.7 244.628L1159.26 251.546V228.253L1138.33 239.904ZM1157.93 230.491V251.551L1139 241.021L1157.93 230.491ZM1157.93 255.125V276.185L1139 265.655L1157.93 255.125ZM1161.14 253.338L1159.93 252.668L1171.69 246.123L1171.66 260.534L1159.93 254.007L1161.14 253.337V253.338ZM1138.33 224.214V206.625H1169.75L1138.33 224.214ZM1138.33 205.337V190.63H1181.75L1203.42 226.986L1190.33 234.269L1172.99 205.34H1172.79C1172.77 205.331 1172.76 205.32 1172.75 205.312C1172.65 205.257 1172.54 205.228 1172.43 205.228C1172.31 205.228 1172.2 205.257 1172.1 205.312L1172.06 205.339L1138.33 205.337ZM1249.62 302.563L1250.54 304.09L1249.62 302.563V303.903L1237.53 297.174L1250.83 289.731V303.232L1249.62 302.563ZM1252.17 303.233V288.983L1285.62 270.261L1285.53 307.961L1273.1 314.879V291.586L1252.17 303.233ZM1271.76 293.819V314.88L1252.84 304.35L1271.76 293.819ZM1271.76 318.453V339.514L1252.84 328.984L1271.76 318.453ZM1274.97 316.666L1273.77 315.996L1285.53 309.451L1285.5 323.862L1273.77 317.335L1274.97 316.666ZM1252.16 287.542V269.954H1283.59L1252.16 287.542ZM1252.16 268.665V253.958H1295.59L1317.25 290.315L1304.16 297.597L1286.83 268.668H1286.62C1286.61 268.66 1286.6 268.649 1286.59 268.64C1286.49 268.586 1286.38 268.557 1286.26 268.557C1286.15 268.557 1286.04 268.586 1285.94 268.64L1285.89 268.667L1252.16 268.665ZM1343.15 301.334H1364.66V316.041H1334.08L1319.04 290.806L1332.39 283.379L1343.15 301.333L1343.92 300.04L1333.55 282.733L1350.32 273.402L1364.66 281.316V300.042H1343.92L1343.15 301.334ZM1362.79 264.98L1350.27 271.942L1316.55 253.329L1350.03 234.588L1362.79 241.686L1341.86 253.333L1362.79 264.98ZM1344.53 253.333L1363.46 242.803V263.863L1344.53 253.333ZM1303.68 46.0233L1314.05 63.3331L1303.68 80.6429L1286.79 71.249L1286.82 55.3986L1303.68 46.0233ZM1286.83 53.9085L1286.91 18.0299L1303.01 44.9032L1286.83 53.9085ZM1285.62 16.9284L1285.53 54.6293L1273.1 61.5472V38.2536L1252.16 49.9004V35.6508L1285.62 16.9284ZM1252.17 34.21V16.6214H1283.59L1252.17 34.21ZM1252.17 90.6218V76.7665L1273.1 88.4134V65.1173L1285.5 72.0143L1285.41 108.969L1252.17 90.6218ZM1284.76 110.046H1252.17V92.0586L1284.76 110.046ZM1274.97 63.3339L1273.77 62.664L1285.53 56.1186L1285.5 70.5314L1273.77 64.0046L1274.97 63.3347V63.3339ZM1252.83 75.6506L1271.76 65.1206V86.1815L1252.83 75.6506ZM1271.76 40.4871V61.548L1252.83 51.018L1271.76 40.4871ZM1286.08 111.336L1294.85 126.043H1252.16V111.336H1286.08ZM1252.16 176.567V162.318L1285.61 143.595L1285.53 181.296L1273.1 188.214V164.921L1252.16 176.567ZM1271.76 167.154V188.215L1252.83 177.685L1271.76 167.154ZM1271.76 191.787V212.848L1252.83 202.318L1271.76 191.787ZM1274.97 190.001L1273.77 189.331L1285.53 182.785L1285.5 197.197L1273.77 190.67L1274.97 190.001ZM1252.16 160.877V143.288H1283.59L1252.16 160.877ZM1252.16 141.999V127.292H1295.59L1317.25 163.649L1304.16 170.931L1286.83 142.002H1286.62C1286.61 141.994 1286.6 141.982 1286.58 141.974C1286.49 141.919 1286.37 141.89 1286.26 141.89C1286.15 141.89 1286.04 141.919 1285.94 141.974L1285.89 142L1252.16 141.999ZM1295.96 252.085L1287.2 237.378L1304.16 209.067L1317.25 216.35L1295.96 252.085ZM1297.08 253.956H1314.76L1331.72 282.264L1318.37 289.69L1297.08 253.956ZM1332.58 316.043H1315.21L1304.83 298.711L1317.92 291.43L1332.58 316.043ZM1316.91 254.965L1348.97 272.662L1332.87 281.618L1316.91 254.965ZM1303.68 172.689L1314.05 189.999L1303.68 207.309L1286.79 197.915L1286.83 182.065L1303.68 172.689ZM1286.83 180.575L1286.91 144.696L1303.01 171.569L1286.83 180.575ZM1315.22 190.623H1332.59L1317.92 215.235L1304.84 207.955L1315.22 190.623ZM1318.38 216.976L1331.72 224.402L1314.76 252.71H1297.09L1318.38 216.976ZM1286.71 235.629L1286.79 199.402L1303.01 208.426L1286.71 235.629ZM1314.76 126.046H1297.09L1318.38 90.3123L1331.72 97.7386L1314.76 126.046ZM1332.88 98.3834L1348.74 107.207L1316.93 125.014L1332.88 98.3834ZM1317.92 88.5718L1304.84 81.291L1315.22 63.9601H1332.59L1317.92 88.5718ZM1295.97 125.42L1287.2 110.713L1304.17 82.4029L1317.25 89.6853L1295.97 125.42ZM1286.71 108.964L1286.79 72.7375L1303.01 81.7613L1286.71 108.964ZM1304.84 45.3808L1317.92 38.0992L1332.59 62.7117H1315.22L1304.84 45.3808ZM1333.7 64.584L1342.59 79.4922L1342.69 79.4372L1332.39 96.6202L1319.04 89.1924L1333.7 64.584ZM1334.82 63.9585H1364.66V78.6655H1343.59L1334.82 63.9585ZM1364.66 79.9585V98.2962L1350.07 106.458L1333.55 97.2634L1343.92 79.9536L1343.38 79.0518L1343.92 79.9536L1364.66 79.9585ZM1362.79 115.024L1342.97 126.046H1317.66L1350.03 107.925L1362.79 115.024ZM1348.98 146.001L1332.88 154.957L1316.91 128.303L1348.98 146.001ZM1331.72 155.602L1318.38 163.028L1297.08 127.295H1314.76L1331.72 155.602ZM1332.59 189.379H1315.22L1304.83 172.048L1317.92 164.766L1332.59 189.379ZM1333.7 191.252L1342.59 206.16L1342.69 206.105L1332.39 223.288L1319.04 215.861L1333.7 191.252ZM1332.88 225.05L1348.74 233.873L1316.93 251.68L1332.88 225.05ZM1364.66 317.292V331.999H1343.59L1334.82 317.292H1364.66ZM1342.69 332.772L1332.39 349.955L1319.03 342.521L1333.71 317.916L1342.59 332.825L1342.69 332.772ZM1317.91 341.903L1304.83 334.63L1315.22 317.299H1332.58L1317.91 341.903ZM1303.68 333.984L1286.79 324.59L1286.83 308.74L1303.68 299.366L1314.05 316.676L1303.68 333.984ZM1286.83 307.249L1286.91 271.37L1303.01 298.244L1286.83 307.249ZM1303.01 335.1L1286.71 362.303L1286.79 326.076L1303.01 335.1ZM1252.17 252.717V238.01H1286.08L1294.85 252.717H1252.17ZM1252.17 236.717V218.729L1284.76 236.717H1252.17ZM1252.17 217.293V203.438L1273.1 215.084V191.791L1285.5 198.688L1285.41 235.643L1252.17 217.293ZM1252.17 201.205V199.864L1250.82 202.097L1250.56 202.544L1249.62 204.107L1250.82 203.438V216.551L1237.78 209.352L1249.62 202.764V204.105L1250.96 201.872L1251.23 201.425L1252.16 199.862L1250.96 200.532V179.472L1252.16 180.141L1251.23 178.578L1250.96 178.131L1249.62 175.898V177.238L1237.53 170.51L1250.82 163.067V176.567L1249.62 175.897L1250.56 177.461L1250.82 177.908L1252.17 180.141V178.8L1271.09 189.33L1269.89 190L1271.09 190.67L1252.17 201.205ZM1229.32 111.339H1250.83V126.046H1220.25L1205.21 100.811L1218.56 93.3839L1229.32 111.339L1230.09 110.046L1219.72 92.7358L1236.49 83.4041L1250.83 91.3192V110.046H1230.09L1229.32 111.339ZM1248.96 74.9847L1236.44 81.9471L1202.72 63.3339L1236.2 44.5922L1248.96 51.6903L1228.02 63.3371L1248.96 74.9847ZM1230.7 63.3379L1249.62 52.8079V73.8688L1230.7 63.3379ZM1203.42 100.318L1190.33 107.6L1173 78.6712H1172.79C1172.78 78.6623 1172.77 78.651 1172.76 78.6437C1172.66 78.5887 1172.55 78.5598 1172.43 78.5598C1172.32 78.5598 1172.21 78.5887 1172.11 78.6437L1172.06 78.6704H1138.33V63.9634H1181.76L1203.42 100.318ZM1138.33 113.238V98.9838L1171.78 80.2615L1171.7 117.962L1159.27 124.88V101.587L1138.33 113.238ZM1157.93 103.825V124.885L1139 114.355L1157.93 103.825ZM1157.93 128.458V149.519L1139 138.989L1157.93 128.458ZM1161.14 126.672L1159.94 126.002L1171.7 119.456L1171.67 133.868L1159.94 127.341L1161.14 126.672ZM1138.33 97.5479V79.9536H1169.75L1138.33 97.5479ZM1189.84 236.026L1200.21 253.335L1189.84 270.645L1172.96 261.251L1172.99 245.401L1189.84 236.026ZM1173 243.91L1173.07 208.035L1189.17 234.909L1173 243.91ZM1229.32 238.004H1250.83V252.711H1220.25L1205.21 227.475L1218.56 220.048L1229.32 238.003L1230.09 236.71L1219.72 219.4L1236.49 210.069L1250.83 217.984V236.71H1230.09L1229.32 238.004ZM1248.96 201.649L1236.44 208.612L1202.72 189.998L1236.2 171.257L1248.96 178.356L1228.02 190.002L1248.96 201.649ZM1230.7 190.002L1249.62 179.472V200.533L1230.7 190.002ZM1219.87 127.918L1228.75 142.826L1228.85 142.772L1218.56 159.955L1205.21 152.526L1219.87 127.918ZM1189.84 109.36L1200.21 126.669L1189.84 143.979L1172.96 134.585L1172.99 118.735L1189.84 109.36ZM1173 117.244L1173.07 81.3693L1189.17 108.243L1173 117.244ZM1201.38 127.292H1218.75L1204.09 151.903L1191 144.623L1201.38 127.292ZM1191 108.715L1204.09 101.434L1218.76 126.046H1201.39L1191 108.715ZM1219.05 161.716L1234.91 170.54L1203.09 188.347L1219.05 161.716ZM1235.15 209.333L1219.05 218.289L1203.08 191.633L1235.15 209.333ZM1219.87 254.585L1228.76 269.493L1228.86 269.438L1218.56 286.622L1205.21 279.194L1219.87 254.585ZM1250.83 253.959V268.666H1229.76L1220.99 253.959H1250.83ZM1250.83 269.959V288.297L1236.24 296.463L1219.72 287.269L1230.09 269.959L1229.55 269.057L1230.09 269.959H1250.83ZM1234.91 297.208L1203.1 315.015L1219.05 288.385L1234.91 297.208ZM1200.93 316.049H1183.25L1204.54 280.315L1217.89 287.741L1200.93 316.049ZM1204.09 278.573L1191 271.293L1201.39 253.961H1218.75L1204.09 278.573ZM1191 235.379L1204.09 228.098L1218.75 252.711H1201.38L1191 235.379ZM1183.25 190.623H1200.93L1217.89 218.931L1204.54 226.357L1183.25 190.623ZM1183.25 189.377L1204.54 153.642L1217.89 161.069L1200.93 189.377H1183.25ZM1182.13 188.746L1173.37 174.046L1190.33 145.736L1203.42 153.018L1182.13 188.746ZM1172.88 172.296L1172.96 136.069L1189.18 145.093L1172.88 172.296ZM1183.25 63.9569H1200.93L1217.89 92.2647L1204.54 99.6909L1183.25 63.9569ZM1203.08 64.9662L1235.15 82.6631L1219.05 91.619L1203.08 64.9662ZM1183.25 62.71L1204.38 26.8888L1217.88 34.4039L1200.92 62.7117L1183.25 62.71ZM1219.05 35.0471L1234.91 43.8705L1203.09 61.6773L1219.05 35.0471ZM1250.83 127.29V141.997H1229.75L1220.99 127.29H1250.83ZM1250.83 143.29V161.628L1236.24 169.793L1219.72 160.6L1230.09 143.29L1229.55 142.388L1230.09 143.29H1250.83ZM1249.63 327.199L1230.7 316.669L1249.63 306.139V327.199ZM1248.95 328.316L1236.44 335.279L1202.72 316.665L1236.2 297.924L1248.96 305.023L1228.02 316.669L1248.95 328.316ZM1235.14 335.999L1219.04 344.955L1203.08 318.299L1235.14 335.999ZM1217.89 345.601L1204.54 353.027L1183.25 317.293H1200.93L1217.89 345.601ZM1182.13 315.421L1173.37 300.718L1190.33 272.407L1203.42 279.689L1182.13 315.421ZM1172.88 298.966L1172.95 262.739L1189.17 271.763L1172.88 298.966ZM1138.33 189.38V174.673H1172.25L1181.01 189.38H1138.33ZM1138.33 173.38V155.392L1170.93 173.38H1138.33ZM1138.33 153.956V140.1L1159.27 151.747V128.454L1171.66 135.351L1171.58 172.306L1138.33 153.956ZM1138.33 28.7256L1170.93 46.7134H1138.33V28.7256ZM1157.93 22.8476L1139 12.3175L1157.93 1.78744V22.8476ZM1171.66 8.68441L1171.58 45.6402L1138.33 27.2896V13.4343L1159.26 25.0811V1.78744L1171.66 8.68441ZM1172.25 48.0022L1181.01 62.7092H1138.33V48.0022H1172.25ZM1189.17 18.4266L1172.88 45.6297L1172.95 9.40282L1189.17 18.4266ZM1190.33 19.073L1203.26 26.2649L1182.13 62.0822L1173.37 47.38L1190.33 19.073ZM1218.39 0.625433L1203.93 25.1482L1191 17.9563L1201.39 0.624643L1218.39 0.625433ZM1219.51 1.2525L1228.61 16.5147L1218.56 33.2887L1205.04 25.7736L1219.51 1.2525ZM1250.83 15.3333H1229.39L1220.63 0.626222H1250.83V15.3333ZM1250.83 34.9598L1236.24 43.1255L1219.72 33.932L1230.09 16.6221L1229.69 15.9579L1230.09 16.6221H1250.83L1250.83 34.9598ZM1250.83 51.2426L1252.17 53.4753V52.1347L1271.1 62.6648L1269.89 63.3347L1271.1 64.0046L1252.17 74.5346V73.194L1250.83 75.4267L1250.56 75.8736L1249.62 77.4373L1250.83 76.7673V89.884L1237.78 82.6849L1249.62 76.0975V77.4381L1250.96 75.2053L1251.23 74.7585L1252.16 73.1949L1250.96 73.8647V52.8046L1252.16 53.4745L1251.23 51.9109L1250.96 51.464L1249.62 49.2313V50.5711L1237.53 43.8431L1250.83 36.3999V49.9004L1249.62 49.2305L1250.56 50.7933L1250.83 51.2402L1250.83 51.2426ZM1295.59 0.625433L1317.25 36.9825L1304.17 44.2649L1286.83 15.3357H1286.63C1286.61 15.3276 1286.6 15.3163 1286.59 15.3082C1286.49 15.2533 1286.38 15.2243 1286.26 15.2243C1286.15 15.2243 1286.04 15.2533 1285.94 15.3082L1285.89 15.3341H1252.17V0.627109L1295.59 0.625433ZM1314.76 0.625433L1331.72 28.9332L1318.37 36.3586L1297.08 0.625433H1314.76ZM1348.97 19.3324L1332.87 28.2884L1316.91 1.63474L1348.97 19.3324ZM1350.32 20.0734L1364.66 27.9878V46.7141H1343.91L1343.14 48.0071H1364.66V62.7141H1334.08L1319.04 37.4786L1332.39 30.0516L1343.15 48.0063L1343.92 46.7134L1333.55 29.4003L1350.32 20.0734ZM1365.02 11.4941L1364.66 12.0945L1364.39 12.5414L1363.45 14.105L1364.66 13.4351V26.5518L1351.61 19.3527L1363.45 12.7652V14.1058L1364.79 11.8731L1365.02 11.4941ZM1363.45 112.564V113.905L1351.36 107.177L1364.66 99.7345V113.235L1363.45 112.565L1364.39 114.129L1364.66 114.576L1364.89 114.963L1364.79 114.801L1363.45 112.564ZM1363.45 137.198L1344.53 126.668L1363.45 116.138V137.198ZM1350.27 145.279L1317.68 127.292H1342.97L1362.78 138.316L1350.27 145.279ZM1364.66 189.379H1334.08L1319.04 164.144L1332.39 156.717L1343.14 174.671L1343.92 173.378L1333.55 156.069L1350.32 146.738L1364.66 154.652V173.379H1343.92L1343.15 174.672H1364.66L1364.66 189.379ZM1364.66 205.334H1343.58L1334.82 190.627H1364.66L1364.66 205.334ZM1364.66 224.96L1350.07 233.125L1333.55 223.93L1343.92 206.621L1343.38 205.719L1343.92 206.621H1364.66L1364.66 224.96ZM1364.79 241.465L1363.45 239.232V240.573L1351.36 233.844L1364.66 226.401V239.902L1363.46 239.232L1364.39 240.796L1364.66 241.243L1364.92 241.679L1364.79 241.465ZM1364.66 265.428L1364.39 265.875L1363.45 267.439L1364.66 266.769V279.886L1351.61 272.687L1363.45 266.099V267.44L1364.79 265.207L1365.02 264.829L1364.66 265.428ZM1333.55 350.6L1343.92 333.29L1343.38 332.388L1343.92 333.29H1364.66V351.627L1350.07 359.792L1333.55 350.6ZM1316.92 378.347L1332.88 351.716L1348.74 360.54L1316.92 378.347ZM1297.05 379.379L1318.36 343.641L1331.72 351.075L1314.76 379.379L1297.05 379.379ZM1295.93 378.75L1287.2 364.052L1304.16 335.74L1317.24 343.017L1295.93 378.75ZM1252.17 364.672H1286.08L1294.82 379.379H1252.17V364.672ZM1252.17 345.394L1284.76 363.383H1252.17V345.394ZM1252.17 330.103L1273.1 341.75V318.45L1285.5 325.346L1285.41 362.301L1252.16 343.951L1252.17 330.103ZM1252.17 326.53L1250.82 328.762L1250.56 329.209L1249.62 330.773L1250.82 330.103V343.22L1237.78 336.02L1249.62 329.433V330.774L1250.96 328.541L1251.23 328.094L1252.16 326.53L1250.96 327.2V306.139L1252.16 306.809L1251.23 305.246L1250.96 304.799L1250.58 304.163L1250.83 304.576L1252.17 306.809V305.469L1271.1 315.999L1269.89 316.669L1271.1 317.338L1252.17 327.868L1252.17 326.53ZM1220.25 379.378L1205.21 354.142L1218.56 346.715L1229.32 364.672L1230.09 363.379L1219.72 346.069L1236.49 336.737L1250.83 344.651V363.379H1230.09L1229.31 364.672H1250.83V379.379L1220.25 379.378ZM1191 362.045L1204.09 354.765L1218.76 379.379H1201.39L1191 362.045ZM1173 370.571L1173.07 334.696L1189.17 361.569L1173 370.571ZM1139 367.679L1157.93 357.149V378.209L1139 367.679ZM1138.33 352.314L1171.78 333.591L1171.7 371.292L1159.26 378.21V354.916L1138.33 366.563L1138.33 352.314ZM1138.33 333.284H1169.75L1138.33 350.873V333.284ZM1138.33 317.284H1181.76L1203.42 353.641L1190.33 360.924L1173 331.995H1172.79C1172.78 331.985 1172.77 331.976 1172.75 331.967C1172.66 331.912 1172.54 331.883 1172.43 331.883C1172.32 331.883 1172.2 331.912 1172.11 331.967L1172.06 331.994H1138.33L1138.33 317.284ZM1138.33 301.33H1172.25L1181.01 316.037H1138.33L1138.33 301.33ZM1138.33 282.052L1170.92 300.04H1138.33V282.052ZM1138.33 266.761L1159.27 278.408V255.114L1171.66 262.011L1171.58 298.967L1138.33 280.616L1138.33 266.761ZM1138.33 263.188L1137.13 263.857V242.797L1138.33 243.466V242.127L1157.26 252.657L1156.05 253.327L1157.26 253.996L1138.33 264.527V263.188ZM1136.99 265.42L1136.72 265.867L1135.78 267.431L1136.99 266.761V279.878L1123.94 272.678L1135.78 266.091V267.432L1137.12 265.199L1137.35 264.821L1136.99 265.42ZM1105.88 350.592L1116.25 333.282L1115.71 332.38L1116.25 333.282H1137V351.619L1122.41 359.784L1105.88 350.592ZM1089.26 378.338L1105.21 351.708L1121.07 360.531L1089.26 378.338ZM1069.34 379.371L1090.68 343.625L1104.05 351.064L1087.1 379.379L1069.34 379.371ZM1068.23 378.746L1059.5 364.106L1076.5 335.737L1089.57 343.009L1068.23 378.746ZM1024.5 364.672H1058.35L1067.11 379.379H1024.5V364.672ZM1024.5 345.7L1056.54 363.383H1024.5V345.7ZM1024.5 330.104L1045.43 341.75V318.45L1058.05 325.469L1057.96 362.727L1024.5 344.256L1024.5 330.104ZM1023.3 306.14L1024.5 306.81V305.469L1043.43 315.999L1042.22 316.669L1043.43 317.339L1024.5 327.869V326.529L1023.32 328.503L1023.56 328.092L1024.5 326.529L1023.29 327.199L1023.3 306.14ZM1024.5 180.144L1023.56 178.58L1023.3 178.133L1021.95 175.901V177.24L1009.86 170.512L1023.16 163.07V176.571L1021.95 175.901L1022.89 177.464L1023.16 177.911L1024.5 180.144V178.803L1043.43 189.333L1042.22 190.003L1043.43 190.673L1024.5 201.198V199.857L1023.3 200.527V179.467L1024.5 180.144ZM1023.27 328.588L1023.16 328.76L1022.89 329.207L1021.96 330.77L1023.16 330.1V343.523L1009.84 336.169L1021.96 329.429V330.77L1023.27 328.588ZM992.58 379.379L977.542 354.143L990.892 346.716L1001.65 364.672L1002.42 363.379L992.05 346.069L1008.55 336.891L1023.16 344.957V363.381H1002.42L1001.65 364.674H1023.16V379.381L992.58 379.379ZM963.333 362.045L976.42 354.765L991.09 379.379H973.72L963.333 362.045ZM945.33 370.571L945.408 334.696L961.508 361.569L945.33 370.571ZM930.262 378.209L911.336 367.679L930.262 357.149V378.209Z" fill="#91703F" fill-opacity="0.33"/>
<path d="M910.667 0H455.334V380H910.667V0Z" fill="black"/>
<path d="M474.26 379.329L473.055 379.999H478.139L476.935 379.329L488.697 372.784L488.682 379.998H489.975L489.991 372.063L506.842 362.689L517.213 379.999H633.556L633.55 379.995L667.031 361.254L679.789 368.352L658.856 380H661.531L680.458 369.47V380H681.796V369.47L683.001 370.14L682.064 368.577L681.797 368.13L680.459 365.897V367.238L668.366 360.51L681.663 353.068V366.568L680.459 365.898L681.396 367.462L681.664 367.909L683.006 370.141V368.802L701.933 379.332L700.728 380.002H705.812L704.608 379.332L716.37 372.786L716.354 380.001H717.647L717.664 372.065L734.515 362.692L744.886 380.002H861.223L861.216 379.998L894.698 361.257L907.456 368.355L886.522 380H889.198L908.124 369.47V380H909.466V369.47L910.671 370.14L909.734 368.577L909.467 368.13L908.125 365.897V367.238L896.032 360.51L909.329 353.068V366.568L908.125 365.898L909.062 367.462L909.329 367.909L910.671 370.141V263.193L909.466 263.863V242.802L910.671 243.472V136.526L909.329 138.759L909.062 139.206L908.125 140.769L909.329 140.1V153.216L896.284 146.017L908.124 139.43V140.77L909.466 138.538L909.733 138.091L910.67 136.528L909.465 137.198V116.138L910.67 116.808V9.8618L909.465 10.5317V0.00161894H908.123V10.5317L889.197 0.00161894H886.522L907.456 11.6484L894.941 18.6109L861.222 0.00161894H744.881L734.51 17.3115L717.625 7.91756L717.642 -0.00163626H716.349L716.333 7.19511L704.602 0.668243L705.806 -0.00163626H700.722L701.927 0.668243L683 11.1983V9.85854L681.795 10.5284V-0.00163626H680.457V10.5284L661.53 -0.00163626H658.856L679.789 11.6453L667.275 18.6076L633.556 -0.00163626H631.391L648.723 28.9276L635.376 36.353L614.083 0.61981H631.391V-0.00321453H517.214L506.843 17.3066L489.958 7.91273L489.975 -0.00646973H488.682L488.666 7.19027L476.935 0.66341L478.139 -0.00646973H473.055L474.26 0.66341L455.333 11.1935V13.4262L476.267 25.073V1.77935L488.663 8.67632L488.579 45.6321L455.33 27.2815V28.7175L487.923 46.7053H455.33V47.9982H489.247L498.011 62.7052H455.329V63.9512H498.753L520.418 100.307L507.329 107.59L489.996 78.6607H489.789C489.776 78.6518 489.766 78.6405 489.752 78.6332C489.654 78.5783 489.542 78.5494 489.428 78.5494C489.314 78.5494 489.203 78.5783 489.104 78.6332L489.057 78.6599H455.331V79.9528H486.754L455.331 97.5414V98.983L488.78 80.2599L488.697 117.961L476.263 124.879V101.585L455.329 113.232V115.465L474.256 125.995L473.051 126.665L474.256 127.334L455.329 137.864V140.097L476.263 151.744V128.45L488.659 135.347L488.575 172.303L455.326 153.952V155.388L487.919 173.376H455.326V174.669H489.243L498.007 189.376H455.325V190.622H498.749L520.414 226.978L507.325 234.262L489.992 205.332H489.785C489.772 205.324 489.762 205.312 489.748 205.305C489.65 205.25 489.538 205.221 489.424 205.221C489.31 205.221 489.198 205.25 489.1 205.305L489.053 205.332H455.326V206.625H486.75L455.326 224.213V225.655L488.776 206.932L488.692 244.633L476.258 251.551V228.258L455.325 239.904V242.137L474.252 252.667L473.047 253.337L474.252 254.007L455.325 264.537V266.77L476.258 278.417V255.123L488.655 262.02L488.571 298.976L455.321 280.625V282.061L487.914 300.05H455.321V301.343H489.238L498.003 316.05H455.321V317.296H498.745L520.41 353.652L507.321 360.934L489.988 332.005H489.78C489.767 331.996 489.757 331.986 489.743 331.978C489.645 331.923 489.533 331.893 489.419 331.893C489.305 331.893 489.193 331.923 489.095 331.978L489.048 332.004H455.321V333.297H486.745L455.321 350.886V352.327L488.771 333.604L488.687 371.305L476.253 378.223V354.929L455.32 366.576V368.809L474.26 379.329ZM474.931 251.546L456.005 241.016L474.931 230.486V251.546ZM474.931 276.18L456.005 265.65L474.931 255.12V276.18ZM488.7 246.119L488.668 260.531L476.937 254.004L478.141 253.334L476.937 252.664L488.7 246.119ZM474.931 124.88L456.005 114.35L474.931 103.82V124.88ZM474.931 149.514L456.005 138.984L474.931 128.454V149.514ZM488.7 119.453L488.668 133.864L476.937 127.338L478.141 126.668L476.937 125.998L488.7 119.453ZM474.931 22.8476L456.005 12.3175L474.931 1.78744V22.8476ZM500.251 317.29H517.932L534.892 345.598L521.544 353.024L500.251 317.29ZM566.627 302.564L567.542 304.091L566.627 302.564V303.903L555.025 297.448L567.832 290.28V303.233L566.627 302.564ZM546.318 237.998H567.832V252.705H537.249L522.211 227.47L535.561 220.043L546.318 237.997L547.09 236.704L536.72 219.395L553.491 210.063L567.83 217.977V236.704H547.088L546.318 237.998ZM566.627 204.1L567.832 203.43V216.551L554.787 209.352L566.627 202.764V204.105L567.832 202.094L567.563 202.541L566.627 204.1ZM536.873 127.912L545.757 142.82L545.856 142.766L535.561 159.949L522.209 152.521L536.873 127.912ZM521.089 151.898L508.008 144.618L518.391 127.286H535.758L521.089 151.898ZM536.05 161.71L551.909 170.533L520.096 188.34L536.05 161.71ZM553.201 171.252L565.958 178.35L545.025 189.997L565.958 201.644L553.444 208.606L519.719 189.993L553.201 171.252ZM552.148 209.326L536.048 218.282L520.075 191.632L552.148 209.326ZM566.627 179.466V200.527L547.701 189.997L566.627 179.466ZM536.873 254.578L545.757 269.487L545.856 269.432L535.561 286.615L522.209 279.187L536.873 254.578ZM521.089 278.564L508.008 271.284L518.391 253.952H535.758L521.089 278.564ZM536.05 288.376L552.402 297.473L519.605 315.831L536.05 288.376ZM567.832 253.952V268.659H546.756L537.991 253.952H567.832ZM567.832 269.952V288.837L553.733 296.728L536.719 287.263L547.089 269.953L546.549 269.051L547.09 269.953L567.832 269.952ZM566.627 327.195L547.701 316.665L566.627 306.135V327.195ZM565.957 328.312L553.167 335.428L519.935 317.085L553.689 298.192L565.957 305.017L545.023 316.664L565.957 328.312ZM551.869 336.15L536.048 344.954L520.353 318.757L551.869 336.15ZM500.244 316.044L521.539 280.309L534.888 287.736L517.929 316.044H500.244ZM490.37 300.715L507.332 272.404L520.418 279.685L499.129 315.413L490.37 300.715ZM489.951 262.735L506.17 271.759L489.872 298.962L489.951 262.735ZM506.17 234.906L489.992 243.908L490.07 208.033L506.17 234.906ZM517.211 253.331L506.84 270.64L489.954 261.247L489.989 245.396L506.84 236.022L517.211 253.331ZM521.085 228.095L535.756 252.71H518.386L508 235.379L521.085 228.095ZM500.245 190.621H517.926L534.886 218.928L521.539 226.355L500.245 190.621ZM500.245 189.375L521.54 153.64L534.889 161.067L517.929 189.375H500.245ZM490.371 174.045L507.333 145.735L520.419 153.017L499.13 188.744L490.371 174.045ZM489.952 136.066L506.171 145.089L489.873 172.293L489.952 136.066ZM506.171 108.237L489.996 117.238L490.074 81.3637L506.171 108.237ZM517.212 126.661L506.84 143.971L489.955 134.577L489.99 118.727L506.84 109.353L517.212 126.661ZM521.086 101.426L535.756 126.046H518.386L508 108.712L521.086 101.426ZM500.246 63.9512H517.926L534.886 92.259L521.539 99.6852L500.246 63.9512ZM565.952 74.9751L553.438 81.9374L519.713 63.3242L553.198 44.5922L565.956 51.6903L545.022 63.3371L565.952 74.9751ZM547.695 63.3282L566.622 52.7982V73.8591L547.695 63.3282ZM520.09 61.6725L536.045 35.0423L551.903 43.8657L520.09 61.6725ZM552.141 82.659L536.041 91.615L520.075 64.9654L552.141 82.659ZM500.235 62.7052L521.433 26.9138L534.884 34.3974L517.924 62.7052H500.235ZM506.17 18.4226L489.871 45.6257L489.95 9.39877L506.17 18.4226ZM507.328 19.069L520.313 26.2932L499.122 62.0725L490.367 47.3792L507.328 19.069ZM535.518 0.621388L520.977 25.174L507.998 17.953L518.381 0.621388H535.518ZM536.637 1.24767L545.668 16.4032L535.554 33.2839L522.097 25.7971L536.637 1.24767ZM567.825 15.3292H546.523L537.759 0.622276H567.829L567.825 15.3292ZM567.825 34.9558L553.234 43.1215L536.715 33.9279L547.085 16.6181L546.719 16.0072L547.085 16.6181H567.827L567.825 34.9558ZM566.621 49.2281L567.557 50.7909L567.825 51.2378L566.621 49.2273V50.5671L554.528 43.839L567.825 36.3966V49.8972L566.621 49.2281ZM567.825 89.8816L554.78 82.6825L566.621 76.095V77.4356L567.825 75.4252L567.557 75.872L566.621 77.4356L567.825 76.7658V89.8816ZM567.825 126.041H537.242L522.204 100.806L535.554 93.379L546.311 111.334L547.083 110.041L536.713 92.7309L553.484 83.3993L567.823 91.3136V110.046H547.082L546.309 111.339H567.823L567.825 126.041ZM567.825 141.996H546.75L537.985 127.289H567.825V141.996ZM567.825 161.623L553.234 169.788L536.715 160.595L547.085 143.285L546.545 142.383L547.086 143.285H567.827L567.825 161.623ZM569.167 303.231V289.529L602.834 270.684L602.75 307.837L590.097 314.877V291.583L569.167 303.231ZM588.762 293.818V314.879L569.836 304.349L588.762 293.818ZM588.762 318.451V339.512L569.836 328.982L588.762 318.451ZM591.973 316.665L590.768 315.995L602.749 309.328L602.717 323.983L590.767 317.335L591.973 316.665ZM569.164 288.088V269.951H601.566L569.164 288.088ZM569.164 268.662V253.955H612.588L634.253 290.312L621.164 297.595L603.831 268.666L569.164 268.662ZM660.147 301.332H681.664V316.039H651.081L636.043 290.804L649.393 283.377L660.15 301.33L660.922 300.038L650.554 282.733L667.325 273.402L681.664 281.316V300.042H660.922L660.147 301.332ZM680.457 239.227L681.393 240.791L681.662 241.238L681.923 241.674L681.795 241.46L680.457 239.227V240.568L668.365 233.844L681.662 226.401V239.902L680.457 239.227ZM660.147 174.662H681.664V189.369H651.081L636.043 164.133L649.393 156.706L660.15 174.66L660.922 173.367L650.554 156.069L667.325 146.738L681.664 154.652V173.379H660.922L660.147 174.662ZM680.457 112.557L681.393 114.121L681.662 114.568L681.894 114.955L681.795 114.793L680.457 112.56V113.901L668.365 107.173L681.662 99.7305V113.231L680.457 112.557ZM620.675 46.0176L631.047 63.3274L620.675 80.6372L603.79 71.2433L603.825 55.3929L620.675 46.0176ZM603.828 53.9028L603.906 18.0282L620.006 44.9016L603.828 53.9028ZM620.675 172.684L631.047 189.994L620.675 207.304L603.79 197.91L603.825 182.06L620.675 172.684ZM603.828 180.57L603.906 144.695L620.006 171.569L603.828 180.57ZM614.08 253.951H631.761L648.721 282.259L635.374 289.685L614.08 253.951ZM649.586 316.038H632.216L621.833 298.707L634.919 291.425L649.586 316.038ZM633.91 254.961L665.976 272.657L649.876 281.613L633.91 254.961ZM614.077 252.705L635.371 216.97L648.721 224.397L631.761 252.705H614.077ZM650.701 191.244L659.585 206.153L659.684 206.098L649.389 223.281L636.037 215.852L650.701 191.244ZM634.917 215.229L621.836 207.949L632.22 190.617H649.586L634.917 215.229ZM649.879 225.041L665.738 233.865L633.925 251.672L649.879 225.041ZM612.962 252.074L604.203 237.376L621.164 209.066L634.251 216.347L612.962 252.074ZM603.708 235.624L603.787 199.397L620.006 208.421L603.708 235.624ZM621.833 172.04L634.92 164.759L649.586 189.371H632.216L621.833 172.04ZM614.08 127.284H631.761L648.721 155.592L635.374 163.018L614.08 127.284ZM633.91 128.294L665.976 145.99L649.876 154.946L633.91 128.294ZM631.76 126.037H614.085L635.375 90.3035L648.722 97.7297L631.76 126.037ZM649.879 98.3745L665.738 107.198L633.925 125.005L649.879 98.3745ZM612.965 125.412L604.203 110.705L621.164 82.3948L634.253 89.6772L612.965 125.412ZM603.708 108.957L603.787 72.7302L620.006 81.754L603.708 108.957ZM632.219 63.9472H649.585L634.922 88.5588L621.835 81.2781L632.219 63.9472ZM650.704 64.5726L659.588 79.4809L659.687 79.4259L649.392 96.6089L636.041 89.181L650.704 64.5726ZM651.823 63.9472H681.664V78.6542H660.589L651.823 63.9472ZM681.664 79.9536V98.2913L667.073 106.453L650.554 97.2634L660.924 79.9536L660.384 79.0518L660.925 79.9536H681.664ZM680.46 137.196L661.533 126.666L680.46 116.136V137.196ZM679.789 138.313L667.275 145.279L633.549 126.665L667.031 107.924L679.788 115.023L658.856 126.667L679.789 138.313ZM681.664 190.623V205.33H660.589L651.824 190.623H681.664ZM681.664 206.623V224.955L667.073 233.121L650.554 223.93L660.924 206.621L660.384 205.719L660.925 206.621L681.664 206.623ZM680.46 263.866L661.533 253.335L680.46 242.805V263.866ZM679.789 264.982L667.275 271.945L633.55 253.331L667.031 234.59L679.789 241.689L658.856 253.333L679.789 264.982ZM681.663 317.292V331.999H660.588L651.823 317.292H681.663ZM659.687 332.771L649.392 349.954L636.021 342.515L650.705 317.917L659.588 332.826L659.687 332.771ZM634.901 341.892L621.835 334.619L632.219 317.288H649.585L634.901 341.892ZM620.677 333.978L604.014 324.703L604.049 308.61L620.68 299.356L631.052 316.666L620.677 333.978ZM604.049 307.122L604.126 271.733L620.008 298.242L604.049 307.122ZM620.008 335.095L603.929 361.931L604.007 326.193L620.008 335.095ZM569.167 252.712V238.005H603.084L611.849 252.712H569.167ZM591.976 190.006L590.771 189.336L602.534 182.79L602.502 197.202L590.771 190.675L591.976 190.006ZM569.167 236.718V218.73L601.761 236.718H569.167ZM569.167 217.294V203.439L590.101 215.086V191.792L602.497 198.689L602.413 235.644L569.167 217.294ZM569.838 202.322L588.764 191.792V212.853L569.838 202.322ZM569.167 176.572V162.323L602.617 143.6L602.533 181.301L590.099 188.219V164.925L569.167 176.572ZM588.763 167.159V188.22L569.837 177.69L588.763 167.159ZM569.167 160.882V143.293H600.59L569.167 160.882ZM569.167 142.003V127.296H612.592L634.257 163.653L621.168 170.936L603.835 142.007H603.627C603.614 141.999 603.603 141.987 603.59 141.979C603.491 141.924 603.38 141.895 603.266 141.895C603.152 141.895 603.04 141.924 602.942 141.979L602.895 142.005L569.167 142.003ZM569.167 126.049V111.342H603.084L611.849 126.049H569.167ZM602.617 16.9333L602.533 54.6341L590.099 61.5521V38.2584L569.166 49.9052V35.6556L602.617 16.9333ZM569.167 34.2148V16.6262H600.591L569.167 34.2148ZM588.763 40.4919V61.5529L569.837 51.0228L588.763 40.4919ZM588.763 65.1254V86.1863L569.837 75.6562L588.763 65.1254ZM591.973 63.3387L590.768 62.6688L602.532 56.1234L602.5 70.5314L590.768 64.0046L591.973 63.3347V63.3387ZM569.165 110.051V92.0627L601.758 110.051H569.165ZM569.165 90.6267V76.7722L590.099 88.419V65.1173L602.495 72.0143L602.411 108.969L569.165 90.6267ZM569.165 74.5395V73.1989L567.961 73.8688V52.8087L569.165 53.4785V52.1379L588.092 62.668L586.887 63.3379L588.092 64.0078L569.165 74.5395ZM634.254 36.9857L621.165 44.2681L603.832 15.3389H603.624C603.612 15.3308 603.601 15.3196 603.587 15.3115C603.489 15.2565 603.377 15.2275 603.263 15.2275C603.15 15.2275 603.038 15.2565 602.939 15.3115L602.892 15.3373H569.166V0.630266H612.59L634.254 36.9857ZM649.586 62.7157H632.216L621.833 45.3841L634.919 38.1025L649.586 62.7157ZM665.976 19.3357L649.876 28.2916L633.908 1.638L665.976 19.3357ZM667.318 20.0767L681.657 27.991V46.7174H660.916L660.143 48.0103H681.664V62.7173H651.081L636.043 37.4819L649.393 30.0548L660.15 48.0095L660.922 46.7166L650.554 29.4003L667.318 20.0767ZM682.019 11.4973L681.659 12.0977L681.391 12.5446L680.454 14.1083L681.658 13.4384V26.555L668.613 19.3559L680.453 12.7684V14.109L681.791 11.8763L682.019 11.4973ZM682.997 116.811V115.471L701.923 126.001L700.718 126.671L701.923 127.341L682.997 137.871V136.531L681.655 138.764L681.386 139.211L680.45 140.774L681.654 140.104V153.221L668.609 146.022L680.45 139.435V140.775L681.787 138.542L682.055 138.096L682.992 136.533L681.786 137.203V116.143L682.997 116.811ZM682.997 239.904V225.65L716.446 206.928L716.362 244.628L703.928 251.546V228.253L682.997 239.904ZM702.592 230.491V251.551L683.666 241.021L702.592 230.491ZM702.592 255.125V276.185L683.666 265.655L702.592 255.125ZM705.803 253.338L704.599 252.668L716.361 246.123L716.33 260.534L704.599 254.007L705.803 253.337V253.338ZM682.994 224.214V206.625H714.417L682.994 224.214ZM682.994 205.337V190.63H726.418L748.083 226.986L734.994 234.269L717.661 205.34H717.454C717.441 205.331 717.431 205.32 717.417 205.312C717.319 205.257 717.207 205.228 717.093 205.228C716.979 205.228 716.868 205.257 716.769 205.312L716.722 205.339L682.994 205.337ZM794.292 302.563L795.207 304.09L794.292 302.563V303.903L782.199 297.174L795.496 289.731V303.232L794.292 302.563ZM796.833 303.233V288.983L830.283 270.261L830.199 307.961L817.765 314.879V291.586L796.833 303.233ZM816.428 293.819V314.88L797.503 304.35L816.428 293.819ZM816.428 318.453V339.514L797.503 328.984L816.428 318.453ZM819.639 316.666L818.435 315.996L830.198 309.451L830.166 323.862L818.435 317.335L819.639 316.666ZM796.831 287.542V269.954H828.254L796.831 287.542ZM796.831 268.665V253.958H840.255L861.92 290.315L848.831 297.597L831.498 268.668H831.29C831.278 268.66 831.267 268.649 831.253 268.64C831.155 268.586 831.043 268.557 830.929 268.557C830.815 268.557 830.703 268.586 830.605 268.64L830.557 268.667L796.831 268.665ZM887.814 301.334H909.331V316.041H878.749L863.711 290.806L877.061 283.379L887.818 301.333L888.59 300.04L878.22 282.733L894.991 273.402L909.331 281.316V300.042H888.589L887.814 301.334ZM907.454 264.98L894.939 271.942L861.214 253.329L894.696 234.588L907.453 241.686L886.522 253.333L907.454 264.98ZM889.196 253.333L908.122 242.803V263.863L889.196 253.333ZM848.342 46.0233L858.712 63.3331L848.342 80.6429L831.457 71.249L831.491 55.3986L848.342 46.0233ZM831.495 53.9085L831.573 18.0299L847.673 44.9032L831.495 53.9085ZM830.282 16.9284L830.198 54.6293L817.764 61.5472V38.2536L796.831 49.9004V35.6508L830.282 16.9284ZM796.832 34.21V16.6214H828.255L796.832 34.21ZM796.832 90.6218V76.7665L817.766 88.4134V65.1173L830.162 72.0143L830.078 108.969L796.832 90.6218ZM829.425 110.046H796.832V92.0586L829.425 110.046ZM819.639 63.3339L818.435 62.664L830.198 56.1186L830.166 70.5314L818.435 64.0046L819.639 63.3347V63.3339ZM797.501 75.6506L816.428 65.1206V86.1815L797.501 75.6506ZM816.428 40.4871V61.548L797.501 51.018L816.428 40.4871ZM830.749 111.336L839.513 126.043H796.831V111.336H830.749ZM796.832 176.567V162.318L830.281 143.595L830.198 181.296L817.763 188.214V164.921L796.832 176.567ZM816.427 167.154V188.215L797.501 177.685L816.427 167.154ZM816.427 191.787V212.848L797.501 202.318L816.427 191.787ZM819.638 190.001L818.434 189.331L830.196 182.785L830.165 197.197L818.434 190.67L819.638 190.001ZM796.829 160.877V143.288H828.252L796.829 160.877ZM796.829 141.999V127.292H840.253L861.918 163.649L848.829 170.931L831.496 142.002H831.288C831.276 141.994 831.265 141.982 831.252 141.974C831.153 141.919 831.041 141.89 830.927 141.89C830.814 141.89 830.702 141.919 830.603 141.974L830.556 142L796.829 141.999ZM840.628 252.085L831.867 237.378L848.829 209.067L861.917 216.35L840.628 252.085ZM841.743 253.956H859.424L876.384 282.264L863.037 289.69L841.743 253.956ZM877.249 316.043H859.88L849.496 298.711L862.582 291.43L877.249 316.043ZM861.574 254.965L893.64 272.662L877.54 281.618L861.574 254.965ZM848.343 172.689L858.713 189.999L848.343 207.309L831.458 197.915L831.492 182.065L848.343 172.689ZM831.496 180.575L831.574 144.696L847.674 171.569L831.496 180.575ZM859.885 190.623H877.252L862.588 215.235L849.502 207.955L859.885 190.623ZM863.042 216.976L876.389 224.402L859.429 252.71H841.752L863.042 216.976ZM831.377 235.629L831.455 199.402L847.674 208.426L831.377 235.629ZM859.429 126.046H841.752L863.042 90.3123L876.389 97.7386L859.429 126.046ZM877.548 98.3834L893.407 107.207L861.593 125.014L877.548 98.3834ZM862.588 88.5718L849.502 81.291L859.885 63.9601H877.253L862.588 88.5718ZM840.633 125.42L831.871 110.713L848.833 82.4029L861.921 89.6853L840.633 125.42ZM831.377 108.964L831.455 72.7375L847.674 81.7613L831.377 108.964ZM849.502 45.3808L862.588 38.0992L877.255 62.7117H859.885L849.502 45.3808ZM878.371 64.584L887.254 79.4922L887.353 79.4372L877.058 96.6202L863.709 89.1924L878.371 64.584ZM879.489 63.9585H909.331V78.6655H888.255L879.489 63.9585ZM909.328 79.9585V98.2962L894.737 106.458L878.22 97.2634L888.591 79.9536L888.051 79.0518L888.591 79.9536L909.328 79.9585ZM907.455 115.024L887.642 126.046H862.322L894.698 107.925L907.455 115.024ZM893.645 146.001L877.545 154.957L861.576 128.303L893.645 146.001ZM876.389 155.602L863.042 163.028L841.749 127.295H859.429L876.389 155.602ZM877.255 189.379H859.885L849.501 172.048L862.587 164.766L877.255 189.379ZM878.371 191.252L887.254 206.16L887.353 206.105L877.058 223.288L863.709 215.861L878.371 191.252ZM877.548 225.05L893.407 233.873L861.594 251.68L877.548 225.05ZM909.328 317.292V331.999H888.253L879.488 317.292H909.328ZM887.352 332.772L877.057 349.955L863.698 342.521L878.372 317.916L887.256 332.825L887.352 332.772ZM862.578 341.903L849.501 334.63L859.885 317.299H877.251L862.578 341.903ZM848.343 333.984L831.458 324.59L831.492 308.74L848.343 299.366L858.713 316.676L848.343 333.984ZM831.496 307.249L831.574 271.37L847.674 298.244L831.496 307.249ZM847.674 335.1L831.376 362.303L831.454 326.076L847.674 335.1ZM796.833 252.717V238.01H830.75L839.515 252.717H796.833ZM796.833 236.717V218.729L829.426 236.717H796.833ZM796.833 217.293V203.438L817.767 215.084V191.791L830.163 198.688L830.079 235.643L796.833 217.293ZM796.833 201.205V199.864L795.491 202.097L795.223 202.544L794.287 204.107L795.491 203.438V216.551L782.447 209.352L794.287 202.764V204.105L795.625 201.872L795.892 201.425L796.829 199.862L795.624 200.532V179.472L796.829 180.141L795.892 178.578L795.625 178.131L794.287 175.898V177.238L782.195 170.51L795.491 163.067V176.567L794.287 175.897L795.223 177.461L795.491 177.908L796.833 180.141V178.8L815.76 189.33L814.555 190L815.76 190.67L796.833 201.205ZM773.982 111.339H795.496V126.046H764.913L749.875 100.811L763.225 93.3839L773.982 111.339L774.754 110.046L764.384 92.7358L781.155 83.4041L795.494 91.3192V110.046H774.752L773.982 111.339ZM793.622 74.9847L781.108 81.9471L747.383 63.3339L780.865 44.5922L793.622 51.6903L772.689 63.3371L793.622 74.9847ZM775.365 63.3379L794.292 52.8079V73.8688L775.365 63.3379ZM748.089 100.318L735 107.6L717.667 78.6712H717.46C717.447 78.6623 717.437 78.651 717.423 78.6437C717.325 78.5887 717.213 78.5598 717.099 78.5598C716.985 78.5598 716.874 78.5887 716.775 78.6437L716.728 78.6704H683.002V63.9634H726.426L748.089 100.318ZM683 113.238V98.9838L716.45 80.2615L716.366 117.962L703.932 124.88V101.587L683 113.238ZM702.595 103.825V124.885L683.669 114.355L702.595 103.825ZM702.595 128.458V149.519L683.669 138.989L702.595 128.458ZM705.806 126.672L704.602 126.002L716.364 119.456L716.333 133.868L704.602 127.341L705.806 126.672ZM682.997 97.5479V79.9536H714.42L682.997 97.5479ZM734.51 236.026L744.881 253.335L734.51 270.645L717.625 261.251L717.659 245.401L734.51 236.026ZM717.662 243.91L717.74 208.035L733.84 234.909L717.662 243.91ZM773.982 238.004H795.496V252.711H764.913L749.875 227.475L763.225 220.048L773.982 238.003L774.754 236.71L764.384 219.4L781.155 210.069L795.494 217.984V236.71H774.752L773.982 238.004ZM793.622 201.649L781.108 208.612L747.383 189.998L780.865 171.257L793.622 178.356L772.689 190.002L793.622 201.649ZM775.365 190.002L794.292 179.472V200.533L775.365 190.002ZM764.537 127.918L773.421 142.826L773.52 142.772L763.225 159.955L749.873 152.526L764.537 127.918ZM734.51 109.36L744.881 126.669L734.51 143.979L717.625 134.585L717.659 118.735L734.51 109.36ZM717.662 117.244L717.74 81.3693L733.84 108.243L717.662 117.244ZM746.051 127.292H763.418L748.752 151.903L735.671 144.623L746.051 127.292ZM735.668 108.715L748.754 101.434L763.423 126.046H746.053L735.668 108.715ZM763.714 161.716L779.573 170.54L747.76 188.347L763.714 161.716ZM779.814 209.333L763.714 218.289L747.742 191.633L779.814 209.333ZM764.54 254.585L773.423 269.493L773.522 269.438L763.228 286.622L749.878 279.194L764.54 254.585ZM795.498 253.959V268.666H774.423L765.658 253.959H795.498ZM795.498 269.959V288.297L780.908 296.463L764.388 287.269L774.758 269.959L774.218 269.057L774.758 269.959H795.498ZM779.575 297.208L747.762 315.015L763.716 288.385L779.575 297.208ZM745.598 316.049H727.92L749.21 280.315L762.557 287.741L745.598 316.049ZM748.757 278.573L735.67 271.293L746.054 253.961H763.42L748.757 278.573ZM735.667 235.379L748.753 228.098L763.42 252.711H746.05L735.667 235.379ZM727.914 190.623H745.594L762.554 218.931L749.207 226.357L727.914 190.623ZM727.914 189.377L749.208 153.642L762.557 161.069L745.598 189.377H727.914ZM726.798 188.746L718.038 174.046L734.999 145.736L748.086 153.018L726.798 188.746ZM717.545 172.296L717.624 136.069L733.843 145.093L717.545 172.296ZM727.917 63.9569H745.598L762.557 92.2647L749.21 99.6909L727.917 63.9569ZM747.747 64.9662L779.813 82.6631L763.713 91.619L747.747 64.9662ZM727.918 62.71L749.049 26.8888L762.55 34.4039L745.59 62.7117L727.918 62.71ZM763.716 35.0471L779.574 43.8705L747.76 61.6773L763.716 35.0471ZM795.497 127.29V141.997H774.421L765.657 127.29H795.497ZM795.497 143.29V161.628L780.906 169.793L764.386 160.6L774.757 143.29L774.216 142.388L774.757 143.29H795.497ZM794.292 327.199L775.365 316.669L794.292 306.139V327.199ZM793.622 328.316L781.107 335.279L747.382 316.665L780.865 297.924L793.622 305.023L772.689 316.669L793.622 328.316ZM779.811 335.999L763.711 344.955L747.742 318.299L779.811 335.999ZM762.556 345.601L749.209 353.027L727.915 317.293H745.596L762.556 345.601ZM726.799 315.421L718.038 300.718L734.999 272.407L748.088 279.689L726.799 315.421ZM717.542 298.966L717.621 262.739L733.84 271.763L717.542 298.966ZM682.999 189.38V174.673H716.915L725.68 189.38H682.999ZM682.999 173.38V155.392L715.592 173.38H682.999ZM682.999 153.956V140.1L703.933 151.747V128.454L716.329 135.351L716.245 172.306L682.999 153.956ZM682.999 28.7256L715.592 46.7134H682.999V28.7256ZM702.594 22.8476L683.668 12.3175L702.594 1.78744V22.8476ZM716.329 8.68441L716.245 45.6402L682.996 27.2896V13.4343L703.929 25.0811V1.78744L716.329 8.68441ZM716.916 48.0022L725.68 62.7092H682.998V48.0022H716.916ZM733.84 18.4266L717.542 45.6297L717.621 9.40282L733.84 18.4266ZM734.999 19.073L747.931 26.2649L726.8 62.0822L718.039 47.38L734.999 19.073ZM763.061 0.625433L748.593 25.1482L735.669 17.9563L746.052 0.624643L763.061 0.625433ZM764.179 1.2525L773.273 16.5147L763.223 33.2887L749.712 25.7736L764.179 1.2525ZM795.495 15.3333H774.062L765.297 0.626222H795.495V15.3333ZM795.495 34.9598L780.904 43.1255L764.385 33.932L774.755 16.6221L774.357 15.9579L774.755 16.6221H795.497L795.495 34.9598ZM795.495 51.2426L796.837 53.4753V52.1347L815.763 62.6648L814.559 63.3347L815.763 64.0046L796.837 74.5346V73.194L795.495 75.4267L795.227 75.8736L794.291 77.4373L795.495 76.7673V89.884L782.45 82.6849L794.29 76.0975V77.4381L795.627 75.2053L795.895 74.7585L796.832 73.1949L795.627 73.8647V52.8046L796.832 53.4745L795.895 51.9109L795.627 51.464L794.29 49.2313V50.5711L782.197 43.8431L795.494 36.3999V49.9004L794.29 49.2305L795.226 50.7933L795.494 51.2402L795.495 51.2426ZM840.257 0.625433L861.921 36.9825L848.833 44.2649L831.5 15.3357H831.292C831.279 15.3276 831.268 15.3163 831.255 15.3082C831.157 15.2533 831.045 15.2243 830.931 15.2243C830.817 15.2243 830.705 15.2533 830.607 15.3082L830.56 15.3341H796.833V0.627109L840.257 0.625433ZM859.429 0.625433L876.388 28.9332L863.041 36.3586L841.748 0.625433H859.429ZM893.641 19.3324L877.541 28.2884L861.573 1.63474L893.641 19.3324ZM894.983 20.0734L909.322 27.9878V46.7141H888.581L887.808 48.0071H909.331V62.7141H878.749L863.711 37.4786L877.061 30.0516L887.818 48.0063L888.59 46.7134L878.22 29.4003L894.983 20.0734ZM909.684 11.4941L909.324 12.0945L909.057 12.5414L908.12 14.105L909.324 13.4351V26.5518L896.28 19.3527L908.12 12.7652V14.1058L909.462 11.8731L909.684 11.4941ZM908.12 112.564V113.905L896.027 107.177L909.324 99.7345V113.235L908.12 112.565L909.057 114.129L909.324 114.576L909.556 114.963L909.457 114.801L908.12 112.564ZM908.12 137.198L889.194 126.668L908.12 116.138V137.198ZM894.937 145.279L862.348 127.292H887.637L907.451 138.316L894.937 145.279ZM909.324 189.379H878.742L863.704 164.144L877.054 156.717L887.811 174.671L888.583 173.378L878.22 156.069L894.991 146.738L909.331 154.652V173.379H888.589L887.817 174.672H909.331L909.324 189.379ZM909.324 205.334H888.25L879.485 190.627H909.331L909.324 205.334ZM909.324 224.96L894.733 233.125L878.22 223.93L888.591 206.621L888.051 205.719L888.591 206.621H909.331L909.324 224.96ZM909.457 241.465L908.116 239.232V240.573L896.031 233.844L909.328 226.401V239.902L908.124 239.232L909.061 240.796L909.328 241.243L909.591 241.679L909.457 241.465ZM909.324 265.428L909.057 265.875L908.12 267.439L909.324 266.769V279.886L896.28 272.687L908.119 266.099V267.44L909.461 265.207L909.687 264.829L909.324 265.428ZM878.214 350.6L888.584 333.29L888.044 332.388L888.584 333.29H909.331V351.627L894.74 359.792L878.214 350.6ZM861.59 378.347L877.545 351.716L893.403 360.54L861.59 378.347ZM841.717 379.379L863.028 343.641L876.385 351.075L859.429 379.379L841.717 379.379ZM840.601 378.75L831.866 364.052L848.829 335.74L861.91 343.017L840.601 378.75ZM796.833 364.672H830.749L839.489 379.379H796.833V364.672ZM796.833 345.394L829.426 363.383H796.833V345.394ZM796.833 330.103L817.767 341.75V318.45L830.163 325.346L830.079 362.301L796.83 343.951L796.833 330.103ZM796.833 326.53L795.491 328.762L795.223 329.209L794.287 330.773L795.491 330.103V343.22L782.447 336.02L794.287 329.433V330.774L795.625 328.541L795.892 328.094L796.829 326.53L795.624 327.2V306.139L796.829 306.809L795.892 305.246L795.625 304.799L795.244 304.163L795.496 304.576L796.837 306.809V305.469L815.764 315.999L814.559 316.669L815.764 317.338L796.837 327.868L796.833 326.53ZM764.913 379.378L749.875 354.142L763.225 346.715L773.982 364.672L774.754 363.379L764.384 346.069L781.155 336.737L795.494 344.651V363.379H774.752L773.98 364.672H795.494V379.379L764.913 379.378ZM735.667 362.045L748.753 354.765L763.423 379.379H746.053L735.667 362.045ZM717.662 370.571L717.74 334.696L733.84 361.569L717.662 370.571ZM683.669 367.679L702.595 357.149V378.209L683.669 367.679ZM682.998 352.314L716.448 333.591L716.364 371.292L703.93 378.21V354.916L682.997 366.563L682.998 352.314ZM682.998 333.284H714.421L682.998 350.873V333.284ZM682.998 317.284H726.422L748.087 353.641L734.998 360.924L717.666 331.995H717.458C717.446 331.985 717.434 331.976 717.421 331.967C717.322 331.912 717.21 331.883 717.097 331.883C716.983 331.883 716.871 331.912 716.772 331.967L716.726 331.994H682.999L682.998 317.284ZM682.998 301.33H716.914L725.679 316.037H682.997L682.998 301.33ZM682.998 282.052L715.591 300.04H682.998V282.052ZM682.998 266.761L703.932 278.408V255.114L716.328 262.011L716.244 298.967L682.995 280.616L682.998 266.761ZM682.998 263.188L681.793 263.857V242.797L682.998 243.466V242.127L701.925 252.657L700.72 253.327L701.925 253.996L682.998 264.527V263.188ZM681.657 265.42L681.388 265.867L680.451 267.431L681.656 266.761V279.878L668.611 272.678L680.451 266.091V267.432L681.789 265.199L682.016 264.821L681.657 265.42ZM650.546 350.592L660.917 333.282L660.377 332.38L660.918 333.282H681.664V351.619L667.073 359.784L650.546 350.592ZM633.923 378.338L649.877 351.708L665.736 360.531L633.923 378.338ZM614.011 379.371L635.349 343.625L648.719 351.064L631.763 379.379L614.011 379.371ZM612.892 378.746L604.169 364.106L621.166 335.737L634.233 343.009L612.892 378.746ZM569.167 364.672H603.013L611.778 379.379H569.167V364.672ZM569.167 345.7L601.207 363.383H569.167V345.7ZM569.167 330.104L590.1 341.75V318.45L602.715 325.469L602.631 362.727L569.164 344.256L569.167 330.104ZM567.962 306.14L569.167 306.81V305.469L588.093 315.999L586.889 316.669L588.093 317.339L569.167 327.869V326.529L567.983 328.503L568.229 328.092L569.166 326.529L567.962 327.199L567.962 306.14ZM569.167 180.144L568.23 178.58L567.962 178.133L566.621 175.901V177.24L554.528 170.512L567.825 163.07V176.571L566.621 175.901L567.557 177.464L567.825 177.911L569.167 180.144V178.803L588.093 189.333L586.889 190.003L588.093 190.673L569.167 201.198V199.857L567.962 200.527V179.467L569.167 180.144ZM567.932 328.588L567.829 328.76L567.561 329.207L566.625 330.77L567.829 330.1V343.523L554.509 336.169L566.624 329.429V330.77L567.932 328.588ZM537.246 379.379L522.209 354.143L535.558 346.716L546.315 364.672L547.087 363.379L536.717 346.069L553.213 336.891L567.829 344.957V363.381H547.087L546.315 364.674H567.829V379.381L537.246 379.379ZM508 362.045L521.087 354.765L535.756 379.379H518.386L508 362.045ZM489.996 370.571L490.074 334.696L506.175 361.569L489.996 370.571ZM474.929 378.209L456.002 367.679L474.929 357.149V378.209Z" fill="#91703F" fill-opacity="0.33"/>
</svg>
