<svg width="20" height="32" viewBox="0 0 20 32" fill="none" xmlns="http://www.w3.org/2000/svg">
<path d="M19.2352 0.704369C19.7249 1.15551 20 1.76731 20 2.40523C20 3.04315 19.7249 3.65495 19.2352 4.10609L6.30514 16.0145L19.2352 27.923C19.711 28.3767 19.9743 28.9844 19.9684 29.6152C19.9624 30.2459 19.6877 30.8493 19.2034 31.2954C18.7191 31.7414 18.0639 31.9944 17.379 31.9999C16.6941 32.0054 16.0343 31.7629 15.5416 31.3247L0.764797 17.7154C0.275098 17.2642 0 16.6524 0 16.0145C0 15.3766 0.275098 14.7648 0.764797 14.3137L15.5416 0.704369C16.0315 0.253362 16.6958 0 17.3884 0C18.0811 0 18.7454 0.253362 19.2352 0.704369Z" fill="#686868"/>
</svg>
