<svg width="16" height="15" viewBox="0 0 16 15" fill="none" xmlns="http://www.w3.org/2000/svg">
<path d="M7.34593 0H8.65407C8.77035 0 8.82849 0.0555556 8.82849 0.166667V14.8333C8.82849 14.9444 8.77035 15 8.65407 15H7.34593C7.22965 15 7.17151 14.9444 7.17151 14.8333V0.166667C7.17151 0.0555556 7.22965 0 7.34593 0Z" fill="#707070"/>
<path d="M0.674419 6.7085H15.3256C15.4419 6.7085 15.5 6.76405 15.5 6.87516V8.12516C15.5 8.23627 15.4419 8.29183 15.3256 8.29183H0.674419C0.55814 8.29183 0.5 8.23627 0.5 8.12516V6.87516C0.5 6.76405 0.55814 6.7085 0.674419 6.7085Z" fill="#707070"/>
</svg>
